<?xml version="1.0" standalone="no"?>
<!DOCTYPE svg PUBLIC "-//W3C//DTD SVG 20010904//EN"
 "http://www.w3.org/TR/2001/REC-SVG-20010904/DTD/svg10.dtd">
<svg version="1.0" xmlns="http://www.w3.org/2000/svg"
 width="1255.000000pt" height="761.000000pt" viewBox="0 0 1255.000000 761.000000"
 preserveAspectRatio="xMidYMid meet">

<g transform="translate(0.000000,761.000000) scale(0.100000,-0.100000)"
fill="#000000" stroke="none">
<path d="M0 4390 l0 -3220 2755 0 2755 0 0 3220 0 3220 -2755 0 -2755 0 0
-3220z m130 3130 c0 -5 -4 -10 -10 -10 -5 0 -10 5 -10 10 0 6 5 10 10 10 6 0
10 -4 10 -10z m683 3 c-7 -2 -13 -20 -13 -39 0 -20 -5 -34 -12 -35 -10 0 -10
-2 0 -6 6 -2 12 -20 12 -38 0 -18 6 -36 13 -39 6 -3 3 -5 -8 -3 -15 2 -21 11
-23 37 -2 19 -9 38 -15 42 -9 6 -9 8 1 8 6 0 12 11 12 24 0 36 10 56 29 55 10
0 11 -2 4 -6z m857 -3 c0 -5 -4 -10 -10 -10 -5 0 -10 5 -10 10 0 6 5 10 10 10
6 0 10 -4 10 -10z m288 -25 c2 -17 11 -36 20 -42 15 -12 15 -13 0 -13 -12 0
-18 -11 -20 -37 -2 -29 -8 -38 -23 -40 -11 -2 -14 0 -7 3 6 3 12 18 12 33 0
15 5 32 11 38 8 8 8 13 0 17 -6 4 -11 20 -11 36 0 15 -6 31 -12 34 -7 3 -4 5
7 3 14 -1 21 -11 23 -32z m205 28 c-28 -5 -32 -42 -5 -44 16 -1 16 -2 0 -6
-13 -3 -19 -16 -20 -41 l-1 -37 -4 38 c-3 26 -9 37 -21 38 -15 1 -15 2 1 6 9
2 17 12 17 22 0 23 9 31 34 30 19 -2 19 -2 -1 -6z m444 -25 c-3 -7 -5 -2 -5
12 0 14 2 19 5 13 2 -7 2 -19 0 -25z m43 11 c0 -11 -4 -17 -10 -14 -5 3 -10
13 -10 21 0 8 5 14 10 14 6 0 10 -9 10 -21z m168 -54 c-17 -42 -32 -74 -34
-72 -3 2 3 20 11 40 8 21 22 53 29 72 8 19 17 35 20 35 2 0 -9 -34 -26 -75z
m300 -47 c-26 -16 -43 -4 -46 34 -3 33 0 38 22 44 17 4 27 14 28 28 1 11 3 -6
5 -38 3 -41 0 -62 -9 -68z m182 63 c0 -48 3 -60 18 -64 9 -3 -1 -5 -23 -5 -22
0 -32 2 -22 5 13 4 17 15 17 58 0 33 -5 55 -12 58 -8 3 -6 6 5 6 14 1 17 -8
17 -58z m95 -20 c-16 -39 -30 -69 -32 -67 -2 2 9 35 24 74 15 39 29 69 31 67
2 -2 -8 -36 -23 -74z m775 69 c0 -5 -4 -10 -10 -10 -5 0 -10 5 -10 10 0 6 5
10 10 10 6 0 10 -4 10 -10z m167 -22 c-3 -7 -5 -2 -5 12 0 14 2 19 5 13 2 -7
2 -19 0 -25z m43 12 c0 -11 -2 -20 -4 -20 -2 0 -6 9 -9 20 -3 11 -1 20 4 20 5
0 9 -9 9 -20z m-3767 -21 c22 -2 22 -2 0 -6 -17 -3 -23 -12 -24 -31 l-2 -27
-4 25 c-3 14 -10 28 -17 32 -8 6 -8 8 2 8 6 0 13 8 13 18 1 16 2 16 6 0 2 -10
14 -19 26 -19z m580 0 c22 -2 22 -2 0 -6 -35 -7 -30 -61 7 -76 9 -4 4 -6 -10
-4 -21 2 -25 8 -28 40 -2 26 -8 37 -20 38 -15 1 -15 2 1 6 9 2 18 12 18 21 1
15 2 15 6 0 2 -10 14 -19 26 -19z m2500 0 c22 -2 22 -2 0 -6 -18 -3 -23 -11
-23 -34 0 -21 6 -32 23 -39 22 -9 22 -9 1 -9 -23 -1 -34 16 -34 55 0 13 -6 24
-12 25 -10 0 -10 2 0 6 6 2 13 12 13 21 1 15 2 15 6 0 2 -10 14 -19 26 -19z
m-2673 11 c0 -5 -7 -7 -15 -4 -21 8 -45 -14 -45 -41 0 -27 24 -49 45 -41 8 3
15 1 15 -4 0 -16 -47 -11 -64 6 -20 20 -20 43 0 72 15 22 64 31 64 12z m2485
3 c-30 -8 -45 -23 -45 -48 0 -25 15 -40 45 -48 16 -4 15 -5 -5 -6 -33 -1 -50
16 -50 50 0 34 24 59 53 58 20 -1 21 -2 2 -6z m-3375 -52 c0 -22 5 -42 13 -44
6 -3 -4 -5 -23 -5 -19 0 -27 2 -17 5 12 3 17 14 17 38 0 24 -5 35 -17 38 -14
4 -12 5 5 6 19 1 22 -4 22 -38z m106 25 c-8 -6 -16 -27 -18 -46 -3 -33 -4 -33
-8 10 -5 41 -3 45 18 47 19 1 21 -1 8 -11z m55 -32 c-2 -32 0 -35 21 -32 30 4
38 46 12 65 -16 12 -16 13 -1 13 20 0 34 -47 20 -69 -6 -9 -19 -17 -31 -19
-12 -2 -23 -12 -25 -25 -2 -12 -5 9 -6 47 0 38 2 66 6 62 4 -4 6 -23 4 -42z
m150 25 c8 -16 8 -28 0 -45 -18 -41 -71 -25 -71 21 0 44 50 61 71 24z m96 1
c4 -12 3 -13 -5 -1 -17 24 -40 5 -45 -36 l-4 -38 -1 42 c-2 41 7 54 37 50 8
-1 16 -9 18 -17z m581 -26 c3 -40 2 -41 -30 -42 -18 0 -36 4 -40 11 -9 15 10
37 33 37 11 0 19 7 19 16 0 12 -7 15 -25 12 -13 -3 -22 -1 -19 4 3 5 18 8 32
6 24 -3 27 -8 30 -44z m190 19 c3 -20 -1 -23 -28 -23 -40 0 -36 -22 6 -31 l29
-7 -33 -1 c-25 -1 -35 4 -41 22 -14 38 7 69 44 65 12 -2 21 -12 23 -25z m93 0
c-5 -18 -15 -29 -29 -31 -31 -5 -27 -20 6 -24 19 -2 27 -9 27 -23 0 -16 -7
-20 -35 -20 l-35 0 -1 50 c-1 59 9 75 46 75 26 0 28 -2 21 -27z m97 15 c31
-31 3 -82 -40 -76 -18 2 -24 10 -26 37 -5 46 36 69 66 39z m100 -8 c4 -13 3
-13 -11 -2 -23 19 -37 6 -37 -34 0 -19 -4 -34 -10 -34 -5 0 -10 20 -10 44 0
43 1 44 32 43 18 -1 33 -8 36 -17z m72 -19 c0 -29 5 -41 18 -44 9 -3 -3 -5
-28 -5 -25 0 -37 2 -27 5 20 5 24 68 5 76 -7 3 -3 6 10 6 19 1 22 -4 22 -38z
m118 -9 l3 -43 -33 3 c-25 2 -33 8 -33 23 0 13 8 21 23 23 12 2 22 10 22 19 0
11 -7 14 -25 11 -13 -3 -22 -1 -19 4 3 5 18 8 32 6 24 -3 27 -8 30 -46z m433
0 c-4 -54 -11 -53 -11 3 0 27 3 45 7 41 4 -4 6 -24 4 -44z m53 32 c6 -15 4
-15 -11 -3 -10 7 -20 15 -22 16 -2 2 3 3 11 3 9 0 19 -7 22 -16z m84 4 c16
-16 15 -53 -3 -68 -18 -15 -47 -10 -52 10 -4 12 -3 12 5 2 16 -23 47 -10 50
21 4 35 -25 49 -44 22 -12 -16 -14 -16 -14 -3 0 26 38 36 58 16z m78 -36 l1
-42 -4 41 c-5 51 -26 47 -34 -7 l-6 -39 -2 46 c-1 42 1 46 22 45 19 -1 22 -7
23 -44z m33 1 c-1 -53 -6 -49 -11 10 -2 20 0 37 4 37 4 0 8 -21 7 -47z m449 0
c2 -26 -1 -43 -7 -43 -6 0 -11 19 -11 42 0 50 -16 41 -23 -12 -3 -31 -4 -29
-5 11 -2 42 0 46 21 45 19 -1 22 -7 25 -43z m31 0 c-1 -53 -6 -49 -11 10 -2
20 0 37 4 37 4 0 8 -21 7 -47z m92 26 c8 -16 8 -28 0 -45 -18 -41 -71 -25 -71
21 0 44 50 61 71 24z m189 2 c15 -29 13 -31 -25 -31 -26 0 -33 -4 -29 -14 3
-8 18 -17 32 -19 l27 -4 -28 -2 c-20 -1 -30 5 -38 23 -22 48 36 93 61 47z
m378 7 c14 -14 16 -82 2 -73 -5 3 -6 13 -3 21 4 12 0 15 -17 12 -28 -4 -38
-24 -15 -31 12 -4 11 -5 -2 -3 -11 1 -18 9 -18 21 0 14 8 21 28 23 33 4 35 19
5 32 -14 5 -17 9 -7 9 8 1 20 -4 27 -11z m200 -15 c3 -20 -1 -23 -28 -23 -40
0 -36 -22 6 -32 l29 -7 -29 2 c-39 3 -54 27 -38 62 15 33 55 32 60 -2z m93 0
c-5 -18 -15 -29 -29 -31 -31 -5 -27 -20 6 -24 35 -4 39 -41 4 -46 -27 -4 -55
15 -45 31 4 7 6 26 4 44 -3 43 4 53 39 53 26 0 28 -2 21 -27z m99 11 c17 -20
2 -67 -23 -72 -24 -5 -47 16 -47 42 0 42 45 61 70 30z m97 -4 c4 -12 3 -13 -5
-1 -17 25 -42 5 -42 -34 0 -19 -4 -35 -10 -35 -5 0 -10 19 -10 43 0 41 1 43
32 42 19 0 33 -6 35 -15z m73 -19 c0 -29 5 -41 18 -44 9 -3 -1 -5 -23 -5 -22
0 -32 2 -22 5 12 3 17 14 17 38 0 24 -5 35 -17 38 -14 4 -12 5 5 6 19 1 22 -4
22 -38z m118 -6 c3 -39 1 -41 -27 -43 -16 -1 -33 3 -36 8 -9 15 14 40 36 40
26 0 24 19 -3 30 -23 10 -23 10 2 7 22 -2 25 -8 28 -42z m-4101 -27 c-2 -13
-4 -3 -4 22 0 25 2 35 4 23 2 -13 2 -33 0 -45z m70 0 c-2 -13 -4 -5 -4 17 -1
22 1 32 4 23 2 -10 2 -28 0 -40z m2473 -3 c0 -8 -4 -15 -10 -15 -5 0 -10 7
-10 15 0 8 5 15 10 15 6 0 10 -7 10 -15z m-2109 -13 c-7 -2 -18 1 -23 6 -8 8
-4 9 13 5 13 -4 18 -8 10 -11z m-491 -122 c0 -5 -4 -10 -10 -10 -5 0 -10 5
-10 10 0 6 5 10 10 10 6 0 10 -4 10 -10z m683 3 c-7 -2 -13 -20 -13 -39 0 -20
-5 -34 -12 -35 -10 0 -10 -2 0 -6 6 -2 12 -20 12 -38 0 -18 6 -36 13 -39 6 -3
3 -5 -8 -3 -15 2 -21 11 -23 37 -2 19 -9 38 -15 42 -9 6 -9 8 1 8 6 0 12 11
12 24 0 36 10 56 29 55 10 0 11 -2 4 -6z m497 -56 l0 -64 -31 -1 c-22 0 -33 5
-41 22 -13 30 5 66 32 66 13 0 20 7 20 20 0 11 5 20 10 20 6 0 10 -28 10 -63z
m448 51 c7 -7 12 -25 12 -40 0 -15 6 -28 13 -29 10 0 10 -2 0 -6 -7 -2 -13
-15 -13 -28 0 -38 -11 -55 -34 -55 -19 1 -19 2 -3 11 10 6 17 22 17 39 0 17 6
30 13 31 10 0 10 2 0 6 -7 2 -13 18 -13 33 0 17 -7 33 -17 39 -15 9 -15 10 -2
11 8 0 20 -5 27 -12z m215 5 c-28 -5 -32 -42 -5 -44 16 -1 16 -2 0 -6 -13 -3
-19 -16 -20 -41 l-1 -37 -4 38 c-3 26 -9 37 -21 38 -15 1 -15 2 1 6 9 2 17 12
17 22 0 23 9 31 34 30 19 -2 19 -2 -1 -6z m447 -15 c0 -19 -2 -20 -10 -8 -13
19 -13 30 0 30 6 0 10 -10 10 -22z m33 2 c-3 -11 -7 -20 -9 -20 -2 0 -4 9 -4
20 0 11 4 20 9 20 5 0 7 -9 4 -20z m172 -59 c-16 -39 -30 -69 -32 -67 -2 2 9
35 24 74 15 39 29 69 31 67 2 -2 -8 -36 -23 -74z m315 12 c0 -36 -3 -63 -7
-59 -4 4 -6 23 -4 42 2 29 -1 34 -18 34 -30 0 -41 -48 -15 -68 10 -8 13 -12 5
-10 -42 12 -34 88 9 88 13 0 20 7 20 20 0 11 2 20 5 20 3 0 5 -30 5 -67z m170
8 c0 -48 3 -60 18 -64 9 -3 -1 -5 -23 -5 -22 0 -32 2 -22 5 13 4 17 15 17 58
0 43 -4 54 -17 58 -14 4 -12 5 5 6 20 1 22 -3 22 -58z m94 -12 c-14 -35 -30
-68 -35 -74 -5 -5 5 25 22 68 18 43 33 76 35 74 2 -2 -8 -33 -22 -68z m416 8
l0 -63 -32 1 c-29 0 -33 4 -36 28 -4 33 13 57 39 57 12 0 19 7 19 20 0 11 2
20 5 20 3 0 5 -28 5 -63z m340 41 c0 -19 -2 -20 -10 -8 -13 19 -13 30 0 30 6
0 10 -10 10 -22z m33 2 c-3 -11 -7 -20 -9 -20 -2 0 -4 9 -4 20 0 11 4 20 9 20
5 0 7 -9 4 -20z m-3380 -21 c22 -2 22 -2 0 -6 -17 -3 -23 -12 -24 -31 l-2 -27
-4 25 c-3 14 -10 28 -17 32 -8 6 -8 8 2 8 6 0 13 8 13 18 1 16 2 16 6 0 2 -10
14 -19 26 -19z m870 0 c22 -2 22 -2 0 -6 -35 -7 -30 -61 7 -76 9 -4 4 -6 -10
-4 -21 2 -25 8 -28 40 -2 26 -8 37 -20 38 -15 1 -15 2 1 6 9 2 18 12 18 21 1
15 2 15 6 0 2 -10 14 -19 26 -19z m2310 0 c22 -2 22 -2 0 -6 -18 -3 -23 -11
-23 -34 0 -21 6 -32 23 -39 22 -10 22 -10 -3 -7 -21 2 -26 8 -28 37 -2 19 -9
38 -15 42 -9 6 -9 8 1 8 6 0 13 8 13 18 1 16 2 16 6 0 2 -10 14 -19 26 -19z
m-2774 7 c17 -20 2 -46 -30 -53 -18 -3 -29 -13 -32 -27 -2 -11 -5 5 -6 37 -1
56 -1 57 28 57 16 0 34 -6 40 -14z m2295 8 c32 -12 11 -64 -25 -64 -10 0 -19
-10 -22 -22 -2 -13 -5 3 -6 35 -1 60 8 68 53 51z m-3184 -53 c0 -22 5 -42 13
-44 6 -3 -4 -5 -23 -5 -19 0 -27 2 -17 5 12 3 17 14 17 38 0 24 -5 35 -17 38
-14 4 -12 5 5 6 19 1 22 -4 22 -38z m106 25 c-8 -6 -16 -27 -18 -46 -3 -33 -4
-33 -8 10 -5 41 -3 45 18 47 19 1 21 -1 8 -11z m55 -32 c-2 -32 0 -35 21 -32
30 4 38 46 12 65 -16 12 -16 13 -1 13 20 0 34 -47 20 -69 -6 -9 -19 -17 -31
-19 -12 -2 -23 -12 -25 -25 -2 -12 -5 9 -6 47 0 38 2 66 6 62 4 -4 6 -23 4
-42z m150 25 c8 -16 8 -28 0 -45 -18 -41 -71 -25 -71 21 0 44 50 61 71 24z
m96 1 c4 -12 3 -13 -5 -1 -17 24 -40 5 -45 -36 l-4 -38 -1 42 c-2 41 7 54 37
50 8 -1 16 -9 18 -17z m581 0 c4 -13 3 -13 -11 -2 -23 19 -37 6 -37 -34 0 -19
-4 -34 -10 -34 -5 0 -10 20 -10 44 0 43 1 44 32 43 18 -1 33 -8 36 -17z m90 8
c31 -31 3 -82 -40 -76 -18 2 -24 10 -26 37 -5 46 36 69 66 39z m142 -29 c0
-33 3 -40 18 -37 12 2 18 14 20 41 4 52 22 47 22 -6 0 -43 -1 -44 -32 -45 -18
0 -36 5 -40 11 -11 18 -10 77 2 77 6 0 10 -18 10 -41z m249 19 c12 -32 2 -57
-25 -64 -30 -8 -54 11 -54 40 0 47 63 66 79 24z m478 2 c4 -12 3 -13 -5 -1
-17 24 -40 5 -45 -36 l-4 -38 -1 42 c-2 41 7 54 37 50 8 -1 16 -9 18 -17z m91
8 c7 -7 12 -21 11 -32 -1 -18 -2 -17 -8 4 -5 19 -14 25 -33 25 -15 -1 -24 3
-22 7 8 12 38 10 52 -4z m76 4 c2 -4 0 -25 -4 -47 l-8 -40 -1 45 c-1 51 -17
44 -24 -10 -3 -31 -4 -30 -5 10 -2 39 1 46 18 47 11 1 21 -1 24 -5z m34 -48
l-3 -39 -5 47 c-3 26 -1 43 3 39 5 -5 7 -26 5 -47z m478 6 l1 -45 -4 43 c-4
45 -20 56 -27 20 -3 -13 -7 -32 -9 -43 -3 -11 -5 0 -6 25 -1 51 -17 44 -24
-10 -3 -31 -4 -30 -5 11 l-2 46 38 -1 c37 -1 37 -1 38 -46z m82 41 c18 -11 11
-61 -9 -74 -28 -17 -49 -1 -49 37 0 41 26 58 58 37z m200 -18 c3 -20 -1 -23
-28 -23 -40 0 -36 -22 6 -32 l29 -7 -29 2 c-39 3 -54 27 -38 62 15 33 55 32
60 -2z m389 7 c4 -13 3 -13 -6 0 -16 23 -45 0 -52 -41 -6 -32 -6 -32 -8 11 -1
45 0 46 31 45 19 0 33 -6 35 -15z m94 -1 c8 -16 8 -28 0 -45 -18 -41 -71 -25
-71 21 0 44 50 61 71 24z m157 -57 c11 2 19 17 23 43 l6 40 2 -46 c1 -44 0
-46 -26 -45 -26 1 -28 4 -29 44 l-1 42 4 -41 c3 -31 8 -40 21 -37z m220 66 c7
-7 12 -21 12 -33 0 -43 -50 -62 -70 -26 -14 27 -13 37 6 55 19 19 36 20 52 4z
m174 -3 c0 -5 -5 -11 -11 -13 -6 -2 -11 4 -11 13 0 9 5 15 11 13 6 -2 11 -8
11 -13z m-3885 -57 c-2 -13 -4 -3 -4 22 0 25 2 35 4 23 2 -13 2 -33 0 -45z
m70 0 c-2 -13 -4 -5 -4 17 -1 22 1 32 4 23 2 -10 2 -28 0 -40z m1850 20 c-3
-8 -6 -5 -6 6 -1 11 2 17 5 13 3 -3 4 -12 1 -19z m427 -29 c-3 -5 -10 -7 -15
-3 -5 3 -7 10 -3 15 3 5 10 7 15 3 5 -3 7 -10 3 -15z m1546 -3 c0 -22 -17 -36
-43 -36 -7 0 -5 5 5 10 10 6 14 18 11 30 -4 14 0 20 11 20 10 0 16 -9 16 -24z
m-3459 -4 c-7 -2 -18 1 -23 6 -8 8 -4 9 13 5 13 -4 18 -8 10 -11z m1542 6 c-2
-5 -13 -8 -23 -8 -10 0 -21 3 -23 8 -3 4 8 7 23 7 15 0 26 -3 23 -7z m-2043
-408 c0 -5 -4 -10 -10 -10 -5 0 -10 5 -10 10 0 6 5 10 10 10 6 0 10 -4 10 -10z
m60 0 c0 -5 -4 -10 -10 -10 -5 0 -10 5 -10 10 0 6 5 10 10 10 6 0 10 -4 10
-10z m60 0 c0 -5 -4 -10 -10 -10 -5 0 -10 5 -10 10 0 6 5 10 10 10 6 0 10 -4
10 -10z m647 -146 c-3 -3 -12 -4 -19 -1 -8 3 -5 6 6 6 11 1 17 -2 13 -5z m986
-1 c-7 -2 -13 -20 -13 -39 0 -20 -5 -34 -12 -35 -10 0 -10 -2 0 -6 6 -2 12
-20 12 -38 0 -18 6 -36 13 -39 6 -3 3 -5 -8 -3 -15 2 -21 11 -23 37 -2 19 -9
38 -15 42 -9 6 -9 8 1 8 6 0 12 11 12 24 0 36 10 56 29 55 10 0 11 -2 4 -6z
m-1260 -34 c22 -2 22 -2 0 -6 -17 -3 -23 -12 -24 -31 l-2 -27 -4 25 c-3 14
-10 28 -17 32 -8 6 -8 8 2 8 6 0 13 8 13 18 1 16 2 16 6 0 2 -10 14 -19 26
-19z m947 16 c0 -8 10 -16 23 -16 l22 -2 -22 -4 c-19 -4 -23 -11 -23 -39 0
-28 4 -34 23 -35 19 -1 20 -2 3 -6 -23 -6 -46 21 -46 54 0 13 -6 23 -12 24
-10 0 -10 2 0 6 6 2 12 11 12 19 0 8 5 14 10 14 6 0 10 -7 10 -15z m-162 -7
c7 -7 12 -27 12 -45 0 -34 -21 -53 -59 -53 -19 0 -21 6 -21 55 0 54 1 55 28
55 15 0 33 -5 40 -12z m-1254 -17 c4 -5 -3 -7 -14 -4 -23 6 -26 13 -6 13 8 0
17 -4 20 -9z m92 -5 c15 18 15 17 1 -6 -13 -22 -13 -28 1 -50 l14 -25 -19 23
-19 24 -18 -24 -18 -23 16 26 c13 24 13 29 -1 50 l-17 24 22 -19 c22 -19 23
-19 38 0z m55 -32 c-2 -32 0 -35 21 -32 30 4 38 46 12 65 -16 12 -16 13 -1 13
20 0 34 -47 20 -69 -6 -9 -19 -17 -31 -19 -12 -2 -23 -12 -25 -25 -2 -12 -5 9
-6 47 0 38 2 66 6 62 4 -4 6 -23 4 -42z m150 25 c8 -16 8 -28 0 -45 -18 -41
-71 -25 -71 21 0 44 50 61 71 24z m96 1 c4 -12 3 -13 -5 -1 -17 24 -40 5 -45
-36 l-4 -38 -1 42 c-2 41 7 54 37 50 8 -1 16 -9 18 -17z m283 16 c0 -2 -11 -6
-25 -8 -13 -3 -22 -1 -19 3 5 9 44 13 44 5z m188 -8 c14 -14 16 -82 2 -73 -5
3 -7 12 -3 20 4 11 -2 15 -21 15 -28 0 -37 -25 -11 -33 11 -4 10 -4 -2 -3 -11
1 -18 9 -18 21 0 14 8 21 28 23 33 4 35 19 5 32 -14 5 -17 9 -7 9 8 1 20 -4
27 -11z m92 8 c0 -2 -9 -6 -20 -9 -11 -3 -18 -1 -14 4 5 9 34 13 34 5z m83 -3
c-30 -6 -29 -21 2 -33 14 -5 25 -17 25 -27 -1 -17 -1 -17 -11 0 -5 9 -16 17
-24 17 -8 0 -17 5 -20 10 -12 19 4 40 27 39 l23 -2 -22 -4z m315 -39 c3 -40 3
-41 -30 -40 -26 1 -33 5 -33 21 0 14 8 21 28 23 32 4 31 27 -1 26 -12 0 -19 3
-16 8 3 5 16 8 27 6 18 -2 23 -11 25 -44z m190 1 c3 -39 1 -41 -27 -43 -16 -1
-33 3 -36 8 -9 15 14 40 37 40 11 0 18 5 15 13 -2 6 -13 12 -25 11 -12 0 -19
3 -16 8 3 5 16 8 27 6 18 -2 23 -11 25 -43z m-1528 5 c0 -5 -19 -9 -42 -9
l-43 2 40 7 c22 4 41 8 43 9 1 0 2 -3 2 -9z m640 -41 c21 -6 22 -7 5 -8 -27
-1 -45 17 -44 44 1 17 2 16 8 -5 4 -14 17 -27 31 -31z m305 31 c3 -5 -4 -6
-15 -3 -11 3 -22 9 -25 13 -3 5 4 6 15 3 11 -3 22 -9 25 -13z m-975 -33 c22
-4 21 -5 -4 -4 -17 1 -31 9 -33 17 -3 10 -2 11 4 4 4 -7 19 -14 33 -17z m491
-5 c-7 -2 -18 1 -23 6 -8 8 -4 9 13 5 13 -4 18 -8 10 -11z m484 8 c-3 -5 -16
-10 -28 -9 -20 1 -20 2 3 9 14 4 26 8 28 9 2 1 0 -3 -3 -9z m-197 -7 c-10 -2
-26 -2 -35 0 -10 3 -2 5 17 5 19 0 27 -2 18 -5z m279 1 c-3 -3 -12 -4 -19 -1
-8 3 -5 6 6 6 11 1 17 -2 13 -5z m-1110 -3816 c-1 -689 -2 -128 -2 1247 0
1375 1 1939 2 1253 2 -685 2 -1810 0 -2500z m190 -66 c-1 -653 -2 -116 -2
1193 0 1309 1 1843 2 1187 2 -657 2 -1728 0 -2380z m1403 3518 c0 -5 -4 -10
-10 -10 -5 0 -10 5 -10 10 0 6 5 10 10 10 6 0 10 -4 10 -10z m390 0 c0 -5 -7
-10 -15 -10 -8 0 -15 5 -15 10 0 6 7 10 15 10 8 0 15 -4 15 -10z m-1057 -31
c22 -2 22 -2 0 -6 -19 -4 -23 -11 -23 -38 0 -27 5 -35 23 -38 19 -5 19 -5 -3
-4 -21 2 -25 8 -28 40 -2 26 -8 37 -20 38 -15 1 -15 2 1 6 9 2 18 12 18 21 1
15 2 15 6 0 2 -10 14 -19 26 -19z m380 0 c22 -2 22 -2 0 -6 -17 -3 -23 -12
-24 -31 l-2 -27 -4 25 c-3 14 -10 28 -17 32 -8 6 -8 8 2 8 6 0 13 8 13 18 1
16 2 16 6 0 2 -10 14 -19 26 -19z m947 16 c0 -8 10 -16 23 -16 l22 -2 -22 -4
c-18 -3 -23 -11 -23 -34 0 -21 6 -32 23 -39 21 -9 21 -9 -4 -9 -28 -1 -39 14
-39 55 0 13 -6 24 -12 25 -10 0 -10 2 0 6 6 2 12 11 12 19 0 8 5 14 10 14 6 0
10 -7 10 -15z m883 -16 c22 -2 22 -2 0 -6 -35 -7 -30 -61 7 -76 9 -4 4 -6 -10
-4 -21 2 -26 8 -28 37 -2 19 -9 38 -15 42 -9 6 -9 8 1 8 6 0 13 8 13 18 1 16
2 16 6 0 2 -10 14 -19 26 -19z m-175 9 c17 -17 15 -64 -4 -82 -8 -9 -26 -16
-40 -16 -22 0 -24 3 -24 55 0 54 1 55 28 55 15 0 33 -5 40 -12z m-2557 -54
c-2 -32 0 -35 21 -32 16 2 25 12 29 33 6 28 7 28 8 5 1 -30 -15 -50 -40 -50
-10 0 -19 -10 -22 -22 -2 -13 -5 8 -6 46 0 38 2 66 6 62 4 -4 6 -23 4 -42z
m46 40 c-3 -3 -12 -4 -19 -1 -8 3 -5 6 6 6 11 1 17 -2 13 -5z m54 -42 c-4 -54
-11 -53 -11 3 0 27 3 45 7 41 4 -4 6 -24 4 -44z m46 42 c-3 -3 -12 -4 -19 -1
-8 3 -5 6 6 6 11 1 17 -2 13 -5z m70 0 c-3 -3 -12 -4 -19 -1 -8 3 -5 6 6 6 11
1 17 -2 13 -5z m221 -39 c3 -37 1 -41 -22 -43 -14 -1 -27 2 -30 6 -3 5 4 8 16
8 12 -1 23 5 26 13 3 10 -2 13 -21 9 -15 -3 -24 -1 -21 3 3 5 14 9 25 9 27 0
24 28 -3 33 -20 5 -20 5 2 4 22 -2 25 -7 28 -42z m190 33 c22 -22 13 -38 -19
-38 -36 0 -35 -21 2 -31 21 -6 21 -7 4 -8 -27 -1 -45 17 -45 44 0 23 17 45 35
45 6 0 16 -5 23 -12z m182 8 c0 -2 -9 -6 -20 -9 -11 -3 -18 -1 -14 4 5 9 34
13 34 5z m208 -44 c2 -28 0 -42 -7 -38 -6 4 -8 13 -4 21 3 10 -1 15 -15 15
-28 0 -36 -16 -15 -29 16 -9 16 -10 2 -11 -21 0 -31 24 -16 39 6 6 19 11 29
11 26 0 22 28 -4 33 -20 5 -20 5 2 4 22 -2 25 -7 28 -45z m80 41 c-10 -2 -28
-2 -40 0 -13 2 -5 4 17 4 22 1 32 -1 23 -4z m79 1 c-3 -3 -12 -4 -19 -1 -8 3
-5 6 6 6 11 1 17 -2 13 -5z m120 0 c-3 -3 -12 -4 -19 -1 -8 3 -5 6 6 6 11 1
17 -2 13 -5z m273 -33 c0 -29 5 -41 18 -44 9 -3 -1 -5 -23 -5 -22 0 -32 2 -22
5 12 3 17 14 17 38 0 24 -5 35 -17 38 -14 4 -12 5 5 6 19 1 22 -4 22 -38z
m122 26 c11 -18 10 -77 -2 -77 -5 0 -10 18 -10 41 0 33 -3 40 -17 37 -13 -2
-19 -14 -21 -41 -4 -52 -22 -47 -22 6 0 43 1 44 32 45 18 0 36 -5 40 -11z m92
4 c4 -5 -2 -7 -13 -4 -30 8 -35 -16 -6 -27 17 -7 25 -16 23 -28 -4 -19 -45
-29 -60 -14 -6 6 -1 8 15 5 34 -7 44 15 13 27 -25 9 -34 29 -19 43 9 10 41 8
47 -2z m194 -3 c7 -7 12 -26 12 -44 0 -31 -2 -32 -37 -31 -31 2 -38 6 -38 22
0 14 8 21 28 23 32 4 31 27 -1 26 -12 0 -19 3 -16 8 8 12 38 10 52 -4z m100
-35 c2 -26 -1 -43 -7 -43 -6 0 -11 18 -11 41 0 52 -24 48 -28 -4 -4 -52 -22
-46 -22 7 0 42 1 43 33 42 30 -1 32 -3 35 -43z m96 38 c4 -5 -2 -7 -12 -4 -10
2 -25 -3 -32 -12 -18 -22 -1 -50 29 -49 14 0 18 -3 12 -9 -5 -5 -21 -7 -35 -3
-45 11 -31 86 15 86 10 0 20 -4 23 -9z m94 -3 c22 -22 13 -38 -19 -38 -36 0
-35 -21 2 -31 l24 -7 -25 -1 c-31 -1 -50 16 -50 44 0 25 18 45 40 45 9 0 21
-5 28 -12z m74 -3 c0 -5 -5 -11 -11 -13 -6 -2 -11 4 -11 13 0 9 5 15 11 13 6
-2 11 -8 11 -13z m306 3 c7 -7 12 -26 12 -44 0 -30 -2 -32 -32 -31 -26 2 -33
6 -33 22 0 13 8 21 23 23 12 2 22 10 22 19 0 11 -7 14 -25 11 -13 -3 -22 -1
-19 3 8 13 38 11 52 -3z m200 -33 c3 -40 2 -41 -30 -40 -26 0 -33 4 -33 20 0
14 8 21 27 25 30 6 26 24 -7 33 -12 4 -9 5 10 4 28 -2 30 -5 33 -42z m74 30
c0 -5 -5 -11 -11 -13 -6 -2 -11 4 -11 13 0 9 5 15 11 13 6 -2 11 -8 11 -13z
m-2107 -35 c3 -5 -4 -6 -15 -3 -11 3 -22 9 -25 13 -3 5 4 6 15 3 11 -3 22 -9
25 -13z m432 -2 c-3 -8 -6 -5 -6 6 -1 11 2 17 5 13 3 -3 4 -12 1 -19z m-147
-31 c11 -5 9 -6 -4 -4 -11 1 -21 9 -23 17 -3 10 -2 11 4 4 4 -6 15 -14 23 -17z
m1242 8 c0 -5 -5 -11 -11 -13 -6 -2 -11 4 -11 13 0 9 5 15 11 13 6 -2 11 -8
11 -13z m588 -3 c0 -22 -19 -42 -39 -42 -14 1 -14 2 1 10 10 6 14 18 11 30 -4
14 0 20 11 20 9 0 16 -8 16 -18z m-2115 -2 c-3 -5 -16 -10 -28 -9 -20 1 -20 2
3 9 14 4 26 8 28 9 2 1 0 -3 -3 -9z m96 -8 c-7 -2 -18 1 -23 6 -8 8 -4 9 13 5
13 -4 18 -8 10 -11z m375 0 c-10 -2 -22 0 -28 6 -6 6 0 7 19 4 21 -5 23 -7 9
-10z m-1048 1 c-10 -2 -26 -2 -35 0 -10 3 -2 5 17 5 19 0 27 -2 18 -5z m960 0
c-10 -2 -26 -2 -35 0 -10 3 -2 5 17 5 19 0 27 -2 18 -5z m300 -40 c-16 -2 -40
-2 -55 0 -16 2 -3 4 27 4 30 0 43 -2 28 -4z m-1178 -132 c0 -38 4 -61 13 -64
6 -3 -4 -5 -23 -5 -19 0 -27 2 -17 5 13 4 17 15 17 58 0 33 -5 55 -12 58 -8 3
-6 6 5 6 14 1 17 -8 17 -58z m100 49 c0 -5 -4 -10 -10 -10 -5 0 -10 5 -10 10
0 6 5 10 10 10 6 0 10 -4 10 -10z m960 0 c0 -5 -4 -10 -10 -10 -5 0 -10 5 -10
10 0 6 5 10 10 10 6 0 10 -4 10 -10z m1730 0 c0 -5 -4 -10 -10 -10 -5 0 -10 5
-10 10 0 6 5 10 10 10 6 0 10 -4 10 -10z m587 4 c-3 -3 -12 -4 -19 -1 -8 3 -5
6 6 6 11 1 17 -2 13 -5z m90 0 c-3 -3 -12 -4 -19 -1 -8 3 -5 6 6 6 11 1 17 -2
13 -5z m-2897 -19 c0 -8 10 -16 23 -16 l22 -2 -22 -4 c-19 -4 -23 -11 -23 -38
0 -27 5 -35 23 -38 15 -4 12 -5 -8 -4 -27 2 -30 6 -33 40 -2 26 -8 37 -20 38
-15 1 -15 2 1 6 9 2 17 11 17 19 0 8 5 14 10 14 6 0 10 -7 10 -15z m1730 0 c0
-8 10 -16 23 -16 l22 -2 -22 -4 c-19 -4 -23 -11 -23 -39 0 -28 4 -34 23 -35
19 -1 20 -2 3 -6 -23 -6 -46 21 -46 54 0 13 -6 23 -12 24 -10 0 -10 2 0 6 6 2
12 11 12 19 0 8 5 14 10 14 6 0 10 -7 10 -15z m-746 -28 c24 -58 28 -77 17
-77 -6 0 -11 7 -11 15 0 21 -47 19 -59 -2 -15 -27 -13 -3 5 50 9 26 20 47 25
47 5 0 15 -15 23 -33z m590 24 c3 -4 -6 -6 -19 -3 -19 3 -27 -2 -36 -21 -16
-35 4 -71 37 -64 13 2 21 0 18 -4 -8 -13 -48 -11 -62 3 -17 17 -15 64 4 82 17
17 50 21 58 7z m-125 -31 l-24 -20 23 -19 c33 -28 27 -36 -7 -9 l-29 23 26 27
c14 15 28 26 30 23 3 -2 -6 -14 -19 -25z m990 -20 c0 -3 -14 -16 -32 -29 l-32
-25 24 27 24 27 -24 27 -24 27 32 -25 c18 -13 32 -26 32 -29z m-3328 -6 c-2
-32 0 -35 21 -32 16 2 25 12 29 33 6 28 7 28 8 5 1 -30 -15 -50 -40 -50 -10 0
-19 -10 -22 -22 -2 -13 -5 8 -6 46 0 38 2 66 6 62 4 -4 6 -23 4 -42z m46 40
c-3 -3 -12 -4 -19 -1 -8 3 -5 6 6 6 11 1 17 -2 13 -5z m71 -72 c11 2 19 17 23
43 l6 40 2 -42 c1 -34 -3 -43 -19 -48 -31 -10 -40 2 -38 48 l1 42 4 -43 c3
-34 8 -43 21 -40z m129 58 c4 -13 3 -13 -6 0 -9 12 -14 13 -31 2 -11 -7 -20
-8 -20 -3 0 23 51 24 57 1z m160 14 c-3 -3 -12 -4 -19 -1 -8 3 -5 6 6 6 11 1
17 -2 13 -5z m120 0 c-3 -3 -12 -4 -19 -1 -8 3 -5 6 6 6 11 1 17 -2 13 -5z
m203 -2 c0 -5 -10 -8 -22 -8 -19 1 -23 -4 -23 -29 0 -25 4 -30 23 -29 12 0 22
-3 22 -8 0 -16 -52 -4 -63 14 -17 26 7 68 38 68 14 0 25 -4 25 -8z m98 -40 l3
-43 -33 3 c-25 2 -33 8 -33 23 0 13 8 21 23 23 12 2 22 10 22 19 0 11 -7 14
-25 11 -13 -3 -22 -1 -19 4 3 5 18 8 32 6 24 -3 27 -8 30 -46z m190 36 c22
-22 13 -38 -19 -38 -36 0 -35 -21 2 -31 l24 -7 -25 -1 c-31 -1 -50 16 -50 44
0 25 18 45 40 45 9 0 21 -5 28 -12z m104 5 c-6 -2 -9 -9 -6 -14 8 -14 -15 -39
-37 -39 -11 0 -19 -4 -19 -10 0 -5 13 -10 29 -10 17 0 33 -5 36 -10 12 -19
-17 -41 -49 -38 -30 3 -31 4 -29 53 4 70 7 75 50 74 21 0 32 -3 25 -6z m88 -7
c28 -35 -11 -93 -47 -70 -36 22 -23 84 17 84 10 0 23 -7 30 -14z m104 -1 c3
-8 1 -15 -3 -15 -5 0 -11 5 -13 12 -9 26 -38 -2 -38 -37 0 -19 -4 -35 -10 -35
-5 0 -10 20 -10 43 0 43 1 44 34 45 22 1 36 -4 40 -13z m66 -24 c0 -29 5 -41
18 -44 9 -3 -1 -5 -23 -5 -22 0 -32 2 -22 5 12 3 17 14 17 38 0 24 -5 35 -17
38 -14 4 -12 5 5 6 19 1 22 -4 22 -38z m118 -7 c3 -40 3 -41 -30 -40 -26 1
-33 5 -33 21 0 14 8 21 28 23 32 4 31 27 -1 26 -12 0 -19 3 -16 8 3 5 16 8 27
6 18 -2 23 -11 25 -44z m92 37 c0 -5 -9 -7 -20 -4 -29 8 -25 -16 6 -27 16 -7
24 -16 22 -28 -4 -19 -45 -29 -60 -14 -6 6 0 8 16 5 34 -7 34 14 1 29 -24 11
-32 28 -18 41 10 10 53 8 53 -2z m80 -6 c0 -8 -4 -15 -10 -15 -5 0 -10 7 -10
15 0 8 5 15 10 15 6 0 10 -7 10 -15z m318 -5 c4 -12 3 -13 -10 -2 -24 20 -46
4 -51 -36 -3 -34 -4 -33 -5 9 -2 46 -2 46 30 45 18 -1 33 -7 36 -16z m89 0 c4
-12 3 -13 -5 -1 -17 25 -42 5 -42 -34 0 -19 -4 -35 -10 -35 -5 0 -10 20 -10
44 0 43 1 44 32 43 18 -1 33 -8 35 -17z m91 8 c7 -7 12 -26 12 -44 0 -30 -2
-32 -32 -31 -26 2 -33 6 -33 22 0 13 8 21 23 23 12 2 22 10 22 19 0 11 -7 14
-25 11 -13 -3 -22 -1 -19 3 8 13 38 11 52 -3z m57 -28 c8 -36 21 -31 30 10 4
17 11 30 16 30 9 0 -26 -97 -43 -117 -6 -7 -18 -12 -27 -12 -14 1 -14 2 1 6
25 6 29 30 13 70 -17 41 -19 57 -6 48 5 -3 12 -19 16 -35z m333 -6 c3 -40 3
-41 -30 -40 -26 1 -33 5 -33 21 0 14 8 21 28 23 32 4 31 27 -1 26 -12 0 -19 3
-16 8 3 5 16 8 27 6 18 -2 23 -11 25 -44z m190 34 c22 -22 13 -38 -19 -38 -36
0 -35 -21 2 -32 22 -6 22 -7 -5 -5 -38 3 -54 27 -38 61 12 28 40 34 60 14z
m104 5 c-6 -2 -9 -9 -6 -14 8 -14 -15 -39 -37 -39 -11 0 -19 -4 -19 -10 0 -5
13 -10 29 -10 17 0 33 -5 36 -10 10 -16 -14 -40 -40 -40 -24 0 -49 22 -38 34
4 4 6 22 4 41 -4 47 4 55 47 54 20 0 31 -3 24 -6z m82 1 c19 -7 21 -55 4 -72
-34 -34 -82 13 -59 57 12 21 27 26 55 15z m111 -5 c4 -5 4 -13 0 -17 -3 -3
-10 0 -15 7 -14 24 -39 4 -43 -36 -4 -37 -4 -37 -5 7 -2 44 -1 46 27 48 16 1
33 -3 36 -9z m65 -28 c0 -29 5 -41 18 -44 9 -3 -1 -5 -23 -5 -22 0 -32 2 -22
5 12 3 17 14 17 38 0 24 -5 35 -17 38 -14 4 -12 5 5 6 19 1 22 -4 22 -38z
m118 -6 c3 -39 1 -41 -27 -43 -16 -1 -33 3 -36 8 -9 15 14 40 37 40 11 0 18 5
15 13 -2 6 -13 12 -25 11 -12 0 -19 3 -16 8 3 5 16 8 27 6 18 -2 23 -11 25
-43z m654 30 c0 -5 -5 -11 -11 -13 -6 -2 -11 4 -11 13 0 9 5 15 11 13 6 -2 11
-8 11 -13z m-369 -12 c-13 -2 -33 -2 -45 0 -13 2 -3 4 22 4 25 0 35 -2 23 -4z
m-3036 -25 c-3 -8 -6 -5 -6 6 -1 11 2 17 5 13 3 -3 4 -12 1 -19z m3036 -5
c-13 -2 -33 -2 -45 0 -13 2 -3 4 22 4 25 0 35 -2 23 -4z m-1843 -18 c0 -8 -4
-15 -10 -15 -5 0 -10 7 -10 15 0 8 5 15 10 15 6 0 10 -7 10 -15z m2220 -9 c0
-22 -17 -36 -43 -36 -7 0 -5 5 5 10 10 6 14 18 11 30 -4 14 0 20 11 20 10 0
16 -9 16 -24z m-3374 -4 c-10 -2 -22 0 -28 6 -6 6 0 7 19 4 21 -5 23 -7 9 -10z
m-293 1 c-7 -2 -19 -2 -25 0 -7 3 -2 5 12 5 14 0 19 -2 13 -5z m205 0 c-10 -2
-26 -2 -35 0 -10 3 -2 5 17 5 19 0 27 -2 18 -5z m3269 -39 c-3 -3 -12 -4 -19
-1 -8 3 -5 6 6 6 11 1 17 -2 13 -5z m90 0 c-3 -3 -12 -4 -19 -1 -8 3 -5 6 6 6
11 1 17 -2 13 -5z m-3467 -123 c0 -38 4 -61 13 -64 6 -3 -4 -5 -23 -5 -19 0
-27 2 -17 5 13 4 17 15 17 58 0 33 -5 55 -12 58 -8 3 -6 6 5 6 14 1 17 -8 17
-58z m100 49 c0 -5 -4 -10 -10 -10 -5 0 -10 5 -10 10 0 6 5 10 10 10 6 0 10
-4 10 -10z m600 -53 l0 -64 -32 1 c-28 1 -33 5 -36 29 -4 33 13 57 39 57 12 0
19 7 19 20 0 11 2 20 5 20 3 0 5 -29 5 -63z m1540 0 l0 -63 -32 1 c-29 0 -33
4 -36 28 -4 33 13 57 39 57 12 0 19 7 19 20 0 11 2 20 5 20 3 0 5 -28 5 -63z
m748 56 c-15 -4 -18 -16 -18 -78 0 -62 3 -74 18 -78 13 -4 11 -5 -5 -6 -22 -1
-23 2 -23 84 0 82 1 85 23 84 16 -1 18 -2 5 -6z m102 -78 c0 -82 -1 -85 -22
-84 -17 1 -19 2 -5 6 14 4 17 16 17 78 0 62 -3 74 -17 78 -14 4 -12 5 5 6 21
1 22 -2 22 -84z m-2230 60 c0 -8 10 -16 23 -16 l22 -2 -22 -4 c-19 -4 -23 -11
-23 -38 0 -27 5 -35 23 -38 15 -4 12 -5 -8 -4 -27 2 -30 6 -33 40 -2 26 -8 37
-20 38 -15 1 -15 2 1 6 9 2 17 11 17 19 0 8 5 14 10 14 6 0 10 -7 10 -15z
m1553 -16 c22 -2 22 -2 0 -6 -35 -7 -30 -61 7 -76 9 -4 4 -6 -10 -4 -21 2 -26
8 -28 37 -2 19 -9 38 -15 42 -9 6 -9 8 1 8 6 0 13 8 13 18 1 16 2 16 6 0 2
-10 14 -19 26 -19z m-1046 -31 c20 -52 21 -80 2 -45 -12 21 -59 23 -59 2 0 -8
-4 -15 -10 -15 -8 0 -1 25 25 98 9 24 23 11 42 -40z m584 36 c16 -20 1 -48
-30 -52 -13 -2 -21 -11 -21 -23 0 -10 -4 -19 -10 -19 -5 0 -10 25 -10 55 0 54
1 55 29 55 16 0 34 -7 42 -16z m-121 -19 l-23 -25 24 -27 24 -27 -31 25 -32
24 26 28 c14 15 28 27 31 27 2 0 -6 -11 -19 -25z m-2149 -31 c-2 -32 0 -35 21
-32 16 2 25 12 29 33 6 28 7 28 8 5 1 -30 -15 -50 -40 -50 -10 0 -19 -10 -22
-22 -2 -13 -5 8 -6 46 0 38 2 66 6 62 4 -4 6 -23 4 -42z m46 40 c-3 -3 -12 -4
-19 -1 -8 3 -5 6 6 6 11 1 17 -2 13 -5z m71 -72 c11 2 19 17 23 43 l6 40 2
-42 c1 -34 -3 -43 -19 -48 -31 -10 -40 2 -38 48 l1 42 4 -43 c3 -34 8 -43 21
-40z m129 58 c4 -13 3 -13 -6 0 -9 12 -14 13 -31 2 -11 -7 -20 -8 -20 -3 0 23
51 24 57 1z m160 14 c-3 -3 -12 -4 -19 -1 -8 3 -5 6 6 6 11 1 17 -2 13 -5z
m120 0 c-3 -3 -12 -4 -19 -1 -8 3 -5 6 6 6 11 1 17 -2 13 -5z m206 -16 c15
-23 -6 -68 -33 -68 -13 0 -20 -7 -20 -20 0 -11 -4 -20 -10 -20 -6 0 -10 28
-10 64 l0 64 31 -1 c18 -1 37 -10 42 -19z m101 7 c3 -8 1 -15 -3 -15 -5 0 -11
5 -13 12 -9 26 -38 -2 -38 -37 0 -19 -4 -35 -10 -35 -5 0 -10 20 -10 43 0 43
1 44 34 45 22 1 36 -4 40 -13z m86 1 c28 -35 -11 -93 -47 -70 -36 22 -23 84
17 84 10 0 23 -7 30 -14z m160 -61 c10 0 16 12 18 38 4 52 22 47 22 -7 0 -44
0 -44 -32 -43 -32 2 -33 4 -34 47 l-2 45 7 -40 c4 -26 11 -40 21 -40z m231 54
c16 -31 -3 -69 -36 -69 -17 0 -29 8 -36 24 -15 32 4 66 36 66 15 0 29 -9 36
-21z m89 12 c0 -5 -9 -7 -20 -4 -29 8 -25 -16 5 -27 14 -5 25 -16 25 -25 0
-18 -47 -32 -61 -18 -7 7 -2 9 15 6 34 -7 34 14 1 27 -24 9 -32 29 -18 43 10
10 53 8 53 -2z m80 -6 c0 -8 -4 -15 -9 -15 -13 0 -22 16 -14 24 11 11 23 6 23
-9z m315 4 c4 -5 4 -13 0 -17 -3 -3 -10 0 -15 7 -14 24 -39 4 -43 -36 -4 -37
-4 -37 -5 7 -2 44 -1 46 27 48 16 1 33 -3 36 -9z m92 -9 c4 -12 3 -13 -5 -1
-17 25 -42 5 -42 -34 0 -19 -4 -35 -10 -35 -5 0 -10 19 -10 43 0 41 1 43 32
42 19 0 33 -6 35 -15z m91 -25 c3 -39 1 -41 -27 -43 -16 -1 -33 3 -36 8 -9 15
14 40 37 40 11 0 18 5 15 13 -2 6 -13 12 -25 11 -12 0 -19 3 -16 8 3 5 16 8
27 6 18 -2 23 -11 25 -43z m53 8 l12 -38 18 40 c10 22 18 35 18 28 1 -7 -10
-37 -23 -68 -17 -38 -31 -55 -43 -55 -17 1 -17 1 0 11 21 12 22 35 2 83 -8 20
-11 36 -6 36 5 0 15 -17 22 -37z m336 17 c4 -12 3 -13 -5 -1 -17 25 -42 5 -42
-34 0 -19 -4 -35 -10 -35 -5 0 -10 20 -10 44 0 43 1 44 32 43 18 -1 33 -8 35
-17z m93 6 c28 -35 -11 -93 -47 -70 -36 22 -23 84 17 84 10 0 23 -7 30 -14z
m160 -61 c10 0 16 12 18 38 4 51 22 47 22 -6 0 -42 -1 -43 -32 -42 -32 0 -33
1 -34 45 l-2 45 7 -40 c4 -26 11 -40 21 -40z m229 53 c12 -33 2 -57 -27 -65
-42 -10 -68 40 -36 71 22 23 53 20 63 -6z m77 1 l23 -22 -23 -18 c-13 -11 -28
-19 -33 -19 -4 0 3 9 17 20 l25 20 -25 20 c-14 11 -21 20 -16 20 6 0 20 -10
32 -21z m574 6 c0 -8 -4 -15 -9 -15 -13 0 -22 16 -14 24 11 11 23 6 23 -9z
m-372 -12 c-10 -2 -28 -2 -40 0 -13 2 -5 4 17 4 22 1 32 -1 23 -4z m-2651 -25
c-3 -8 -6 -5 -6 6 -1 11 2 17 5 13 3 -3 4 -12 1 -19z m2651 -5 c-10 -2 -28 -2
-40 0 -13 2 -5 4 17 4 22 1 32 -1 23 -4z m-1648 -18 c0 -8 -4 -15 -9 -15 -13
0 -22 16 -14 24 11 11 23 6 23 -9z m2026 0 c8 -19 -13 -45 -35 -45 -13 0 -13
2 -2 9 8 5 11 16 8 24 -3 8 -3 18 0 21 11 10 23 6 29 -9z m-2990 -13 c-10 -2
-22 0 -28 6 -6 6 0 7 19 4 21 -5 23 -7 9 -10z m-293 1 c-7 -2 -19 -2 -25 0 -7
3 -2 5 12 5 14 0 19 -2 13 -5z m205 0 c-10 -2 -26 -2 -35 0 -10 3 -2 5 17 5
19 0 27 -2 18 -5z m972 -357 c0 -2 -7 -7 -16 -10 -8 -3 -12 -2 -9 4 6 10 25
14 25 6z m65 -6 c3 -6 -1 -7 -9 -4 -18 7 -21 14 -7 14 6 0 13 -4 16 -10z
m-1042 -31 c22 -2 22 -2 0 -6 -17 -3 -23 -12 -24 -31 l-2 -27 -4 25 c-3 14
-10 28 -17 32 -8 6 -8 8 2 8 6 0 13 8 13 18 1 16 2 16 6 0 2 -10 14 -19 26
-19z m390 0 c22 -2 22 -2 0 -6 -19 -4 -23 -11 -23 -38 0 -27 5 -35 23 -38 19
-5 19 -5 -3 -4 -21 2 -25 8 -28 40 -2 26 -8 37 -20 38 -15 1 -15 2 1 6 9 2 18
12 18 21 1 15 2 15 6 0 2 -10 14 -19 26 -19z m376 -3 c-3 -3 -11 5 -18 17 -13
21 -12 21 5 5 10 -10 16 -20 13 -22z m-1142 -2 c-3 -3 -12 -4 -19 -1 -8 3 -5
6 6 6 11 1 17 -2 13 -5z m96 -1 c3 -5 -8 -8 -23 -8 -15 0 -26 3 -23 8 2 4 13
7 23 7 10 0 21 -3 23 -7z m103 -41 l1 -42 -4 40 c-4 41 -19 50 -41 28 -8 -8
-12 -9 -12 -1 0 13 19 22 40 20 10 -2 15 -15 16 -45z m84 44 c0 -2 -9 -6 -20
-9 -11 -3 -18 -1 -14 4 5 9 34 13 34 5z m207 -16 c4 -13 3 -13 -6 0 -9 12 -14
13 -31 2 -11 -7 -20 -8 -20 -3 0 23 51 24 57 1z m57 -60 c6 0 17 5 24 12 9 9
12 9 12 1 0 -14 -36 -27 -50 -18 -5 3 -9 25 -8 48 l1 42 4 -42 c3 -26 9 -43
17 -43z m116 73 c-8 -3 -22 -11 -30 -17 -13 -10 -13 -9 -1 7 7 9 21 17 30 16
13 0 14 -1 1 -6z m203 0 c3 -5 -8 -8 -23 -8 -15 0 -26 3 -23 8 2 4 13 7 23 7
10 0 21 -3 23 -7z m58 -41 c-4 -54 -11 -53 -11 3 0 27 3 45 7 41 4 -4 6 -24 4
-44z m44 38 c3 -6 -1 -7 -9 -4 -18 7 -21 14 -7 14 6 0 13 -4 16 -10z m182 -47
c-3 -10 -5 -4 -5 12 0 17 2 24 5 18 2 -7 2 -21 0 -30z m-1200 5 c-3 -8 -6 -5
-6 6 -1 11 2 17 5 13 3 -3 4 -12 1 -19z m90 0 c-3 -8 -6 -5 -6 6 -1 11 2 17 5
13 3 -3 4 -12 1 -19z m70 0 c-3 -8 -6 -5 -6 6 -1 11 2 17 5 13 3 -3 4 -12 1
-19z m178 2 c3 -5 -4 -6 -15 -3 -11 3 -22 9 -25 13 -3 5 4 6 15 3 11 -3 22 -9
25 -13z m522 -2 c-3 -8 -6 -5 -6 6 -1 11 2 17 5 13 3 -3 4 -12 1 -19z m70 0
c-3 -8 -6 -5 -6 6 -1 11 2 17 5 13 3 -3 4 -12 1 -19z m140 0 c-3 -8 -6 -5 -6
6 -1 11 2 17 5 13 3 -3 4 -12 1 -19z m-352 -36 c-6 -7 -45 9 -45 18 0 4 11 3
24 -3 14 -7 23 -13 21 -15z m-679 0 c-10 -2 -22 0 -28 6 -6 6 0 7 19 4 21 -5
23 -7 9 -10z m107 6 c-2 -5 -13 -8 -23 -8 -10 0 -21 3 -23 8 -3 4 8 7 23 7 15
0 26 -3 23 -7z m192 2 c-3 -5 -16 -10 -28 -9 -20 1 -20 2 3 9 14 4 26 8 28 9
2 1 0 -3 -3 -9z m96 -8 c-7 -2 -18 1 -23 6 -8 8 -4 9 13 5 13 -4 18 -8 10 -11z
m482 6 c-2 -5 -13 -8 -23 -8 -10 0 -21 3 -23 8 -3 4 8 7 23 7 15 0 26 -3 23
-7z m176 -18 c11 -24 11 -24 -3 -6 -9 11 -16 24 -16 30 0 12 5 7 19 -24z m306
-28 c-3 -3 -11 0 -18 7 -9 10 -8 11 6 5 10 -3 15 -9 12 -12z m70 8 c-3 -5 -12
-10 -18 -10 -7 0 -6 4 3 10 19 12 23 12 15 0z m-1145 -369 c0 -38 4 -61 13
-64 6 -3 -4 -5 -23 -5 -19 0 -27 2 -17 5 13 4 17 15 17 58 0 33 -5 55 -12 58
-8 3 -6 6 5 6 14 1 17 -8 17 -58z m100 49 c0 -5 -4 -10 -10 -10 -5 0 -10 5
-10 10 0 6 5 10 10 10 6 0 10 -4 10 -10z m393 -31 c22 -2 22 -2 0 -6 -19 -4
-23 -11 -23 -38 0 -27 5 -35 23 -38 19 -5 19 -5 -3 -4 -21 2 -25 8 -28 40 -2
26 -8 37 -20 38 -15 1 -15 2 1 6 9 2 18 12 18 21 1 15 2 15 6 0 2 -10 14 -19
26 -19z m190 0 c22 -2 22 -2 0 -6 -18 -3 -23 -11 -23 -34 0 -21 6 -32 23 -39
22 -9 22 -9 1 -9 -23 -1 -34 16 -34 55 0 13 -6 24 -12 25 -10 0 -10 2 0 6 6 2
13 12 13 21 1 15 2 15 6 0 2 -10 14 -19 26 -19z m557 16 c0 -8 10 -16 23 -16
l22 -2 -22 -4 c-18 -3 -23 -11 -23 -34 0 -21 6 -32 23 -39 l22 -9 -22 0 c-24
-1 -43 25 -43 58 0 12 -6 21 -12 22 -10 0 -10 2 0 6 6 2 12 11 12 19 0 8 5 14
10 14 6 0 10 -7 10 -15z m390 0 c0 -8 10 -16 23 -16 l22 -2 -22 -4 c-19 -4
-23 -11 -23 -38 0 -27 5 -35 23 -38 15 -4 12 -5 -8 -4 -27 2 -30 6 -33 40 -2
26 -8 37 -20 38 -15 1 -15 2 1 6 9 2 17 11 17 19 0 8 5 14 10 14 6 0 10 -7 10
-15z m488 -5 c-7 -10 -14 -17 -17 -15 -4 4 18 35 25 35 2 0 -1 -9 -8 -20z
m585 -11 c22 -2 22 -2 0 -6 -18 -3 -23 -11 -23 -34 0 -21 6 -32 23 -39 22 -10
22 -10 -3 -7 -21 2 -25 8 -28 40 -2 26 -8 37 -20 38 -15 1 -15 2 1 6 9 2 18
12 18 21 1 15 2 15 6 0 2 -10 14 -19 26 -19z m-1340 14 c-8 -3 -13 -23 -13
-48 0 -25 5 -45 13 -48 6 -3 -6 -5 -28 -5 -22 0 -32 2 -22 5 13 3 17 15 17 48
0 33 -4 45 -17 48 -10 3 0 5 22 5 22 0 34 -2 28 -5z m1161 -9 c9 -8 16 -23 16
-32 0 -29 -30 -62 -56 -62 -23 0 -24 3 -24 55 0 52 2 55 24 55 14 0 32 -7 40
-16z m453 -21 c-3 -10 -5 -4 -5 12 0 17 2 24 5 18 2 -7 2 -21 0 -30z m-3296
-29 c-2 -32 0 -35 21 -32 16 2 25 12 29 33 6 28 7 28 8 5 1 -30 -15 -50 -40
-50 -10 0 -19 -10 -22 -22 -2 -13 -5 8 -6 46 0 38 2 66 6 62 4 -4 6 -23 4 -42z
m46 40 c-3 -3 -12 -4 -19 -1 -8 3 -5 6 6 6 11 1 17 -2 13 -5z m71 -72 c11 2
19 17 23 43 l6 40 2 -42 c1 -34 -3 -43 -19 -48 -31 -10 -40 2 -38 48 l1 42 4
-43 c3 -34 8 -43 21 -40z m129 58 c4 -13 3 -13 -6 0 -9 12 -14 13 -31 2 -11
-7 -20 -8 -20 -3 0 23 51 24 57 1z m160 14 c-3 -3 -12 -4 -19 -1 -8 3 -5 6 6
6 11 1 17 -2 13 -5z m120 0 c-3 -3 -12 -4 -19 -1 -8 3 -5 6 6 6 11 1 17 -2 13
-5z m176 -1 c-30 -6 -29 -21 2 -33 14 -5 25 -17 25 -27 -1 -17 -1 -17 -11 0
-5 9 -16 17 -24 17 -8 0 -17 5 -20 10 -12 19 4 40 27 39 l23 -2 -22 -4z m215
-38 c3 -37 1 -41 -22 -43 -14 -1 -27 2 -30 6 -3 5 4 8 16 8 12 -1 23 5 26 13
3 10 -2 13 -21 9 -15 -3 -24 -1 -21 3 3 5 14 9 25 9 27 0 24 28 -3 33 -20 5
-20 5 2 4 22 -2 25 -7 28 -42z m172 6 c0 -22 5 -42 13 -44 6 -3 -4 -5 -23 -5
-19 0 -27 2 -17 5 20 5 24 68 5 76 -8 3 -6 6 5 6 13 1 17 -7 17 -38z m93 29
c-13 -5 -23 -15 -23 -21 0 -7 -3 -9 -6 -6 -10 10 16 37 35 36 11 0 9 -3 -6 -9z
m229 3 c-6 -2 -9 -9 -6 -14 8 -14 -15 -39 -37 -39 -11 0 -19 -4 -19 -10 0 -5
13 -10 29 -10 17 0 33 -5 36 -10 12 -19 -17 -41 -49 -38 -30 3 -31 4 -29 53 4
70 7 75 50 74 21 0 32 -3 25 -6z m86 -5 c22 -22 13 -38 -19 -38 -36 0 -35 -21
2 -31 l24 -7 -25 -1 c-31 -1 -50 16 -50 44 0 25 18 45 40 45 9 0 21 -5 28 -12z
m288 -38 l2 -45 -7 40 c-8 53 -35 55 -39 3 -4 -53 -22 -48 -22 6 0 44 0 44 33
43 31 -2 32 -4 33 -47z m94 41 c0 -5 -9 -7 -20 -4 -29 8 -25 -16 5 -27 14 -5
25 -16 25 -25 0 -18 -47 -32 -61 -18 -7 7 -2 9 15 6 34 -7 34 14 1 27 -24 9
-32 29 -18 43 10 10 53 8 53 -2z m198 -39 l3 -43 -33 3 c-25 2 -33 8 -33 23 0
13 8 21 23 23 12 2 22 10 22 19 0 11 -7 14 -25 11 -13 -3 -22 -1 -19 4 3 5 18
8 32 6 24 -3 27 -8 30 -46z m100 1 c2 -26 -1 -43 -7 -43 -6 0 -11 18 -11 40 0
59 -33 48 -43 -15 -3 -22 -4 -18 -6 16 -1 46 -1 46 32 45 30 -1 32 -3 35 -43z
m92 39 c0 -5 -10 -8 -22 -8 -19 1 -23 -4 -23 -29 0 -25 4 -30 23 -29 12 0 22
-3 22 -8 0 -16 -52 -4 -63 14 -17 26 7 68 38 68 14 0 25 -4 25 -8z m98 -19 c3
-20 -1 -23 -28 -23 -40 0 -36 -22 6 -31 l29 -7 -33 -1 c-25 -1 -35 4 -41 22
-14 38 7 69 44 65 12 -2 21 -12 23 -25z m264 12 c0 -5 -5 -11 -11 -13 -6 -2
-11 4 -11 13 0 9 5 15 11 13 6 -2 11 -8 11 -13z m306 3 c7 -7 12 -26 12 -44 0
-30 -2 -32 -32 -31 -26 2 -33 6 -33 22 0 13 8 21 23 23 12 2 22 10 22 19 0 11
-7 14 -25 11 -13 -3 -22 -1 -19 3 8 13 38 11 52 -3z m200 -33 c3 -40 2 -41
-30 -40 -26 0 -33 4 -33 20 0 14 8 21 27 25 30 6 26 24 -7 33 -12 4 -9 5 10 4
28 -2 30 -5 33 -42z m-721 -12 c-3 -10 -5 -4 -5 12 0 17 2 24 5 18 2 -7 2 -21
0 -30z m-1940 5 c-3 -8 -6 -5 -6 6 -1 11 2 17 5 13 3 -3 4 -12 1 -19z m2070 0
c-3 -8 -6 -5 -6 6 -1 11 2 17 5 13 3 -3 4 -12 1 -19z m-1359 -29 c11 0 12 -2
4 -6 -15 -6 -42 14 -42 31 0 6 5 3 11 -6 5 -10 18 -18 27 -19z m1444 6 c0 -5
-5 -11 -11 -13 -6 -2 -11 4 -11 13 0 9 5 15 11 13 6 -2 11 -8 11 -13z m681
-48 c8 -6 7 -7 -3 -4 -9 2 -16 17 -16 38 -2 31 -1 31 3 4 3 -16 10 -34 16 -38z
m-2797 35 c-10 -2 -22 0 -28 6 -6 6 0 7 19 4 21 -5 23 -7 9 -10z m-293 1 c-7
-2 -19 -2 -25 0 -7 3 -2 5 12 5 14 0 19 -2 13 -5z m205 0 c-10 -2 -26 -2 -35
0 -10 3 -2 5 17 5 19 0 27 -2 18 -5z m279 1 c-3 -3 -12 -4 -19 -1 -8 3 -5 6 6
6 11 1 17 -2 13 -5z m1733 -19 c14 -19 14 -19 -2 -6 -10 7 -18 18 -18 24 0 6
1 8 3 6 1 -2 9 -13 17 -24z m-2463 -767 c-1 -134 -2 -27 -2 237 0 264 1 373 2
243 2 -130 2 -346 0 -480z m200 0 c-1 -134 -2 -27 -2 237 0 264 1 373 2 243 2
-130 2 -346 0 -480z m243 662 c0 -5 -4 -10 -10 -10 -5 0 -10 5 -10 10 0 6 5
10 10 10 6 0 10 -4 10 -10z m103 0 c-13 -5 -23 -16 -23 -25 0 -8 10 -16 23
-16 l22 -2 -22 -4 c-19 -4 -23 -12 -25 -41 l-1 -37 -4 35 c-3 19 -10 38 -16
42 -9 6 -9 8 1 8 6 0 12 6 12 13 0 18 21 37 40 36 9 0 6 -4 -7 -9z m182 -26
c-18 -36 -19 -62 0 -94 21 -36 18 -49 -5 -21 -25 29 -27 97 -4 129 22 31 28
22 9 -14z m95 -16 c0 -62 -5 -60 -13 5 -4 28 -3 47 3 47 6 0 10 -23 10 -52z
m680 42 c0 -5 -4 -10 -10 -10 -5 0 -10 5 -10 10 0 6 5 10 10 10 6 0 10 -4 10
-10z m763 -19 c9 -16 17 -41 17 -56 0 -27 -28 -85 -41 -85 -4 0 2 17 12 37 10
21 19 42 19 48 0 6 -9 27 -19 48 -22 44 -13 50 12 8z m203 16 c-25 -19 -25
-126 1 -145 17 -13 17 -14 -2 -10 -15 2 -21 12 -23 38 -2 19 -9 38 -15 42 -9
6 -9 8 1 8 7 0 12 13 12 33 0 37 6 47 29 47 12 0 12 -2 -3 -13z m-1366 -12 c0
-8 10 -16 23 -16 l22 -2 -22 -4 c-19 -4 -23 -11 -23 -39 0 -28 4 -34 23 -35
19 -1 20 -2 3 -6 -23 -6 -46 21 -46 54 0 13 -6 23 -12 24 -10 0 -10 2 0 6 6 2
12 11 12 19 0 8 5 14 10 14 6 0 10 -7 10 -15z m693 -16 c22 -2 22 -2 0 -6 -35
-7 -30 -61 7 -76 9 -4 4 -6 -10 -4 -21 2 -25 8 -28 40 -2 26 -8 37 -20 38 -15
1 -15 2 1 6 9 2 18 12 18 21 1 15 2 15 6 0 2 -10 14 -19 26 -19z m-855 9 c7
-7 12 -27 12 -45 0 -34 -21 -53 -59 -53 -19 0 -21 6 -21 55 0 54 1 55 28 55
15 0 33 -5 40 -12z m-498 -47 c0 -22 5 -42 13 -44 6 -3 -4 -5 -23 -5 -19 0
-27 2 -17 5 12 3 17 14 17 38 0 24 -5 35 -17 38 -14 4 -12 5 5 6 19 1 22 -4
22 -38z m598 -7 c3 -40 3 -41 -30 -40 -26 1 -33 5 -33 21 0 14 8 21 28 23 32
4 31 27 -1 26 -12 0 -19 3 -16 8 3 5 16 8 27 6 18 -2 23 -11 25 -44z m190 1
c3 -39 1 -41 -27 -43 -16 -1 -33 3 -36 8 -9 15 14 40 37 40 11 0 18 5 15 13
-2 6 -13 12 -25 11 -12 0 -19 3 -16 8 3 5 16 8 27 6 18 -2 23 -11 25 -43z
m272 6 c0 -22 5 -42 13 -44 6 -3 -6 -5 -28 -5 -22 0 -32 2 -22 5 20 5 24 68 5
76 -7 3 -3 6 10 6 19 1 22 -4 22 -38z m118 -8 c2 -26 -1 -43 -7 -43 -6 0 -11
18 -11 41 0 52 -24 48 -28 -4 -4 -52 -22 -46 -22 7 0 42 1 43 33 42 30 -1 32
-3 35 -43z m86 38 c4 -5 -2 -7 -13 -4 -30 8 -35 -16 -6 -27 35 -13 30 -44 -8
-48 -15 -2 -27 1 -27 6 0 6 8 8 19 5 30 -8 35 16 7 27 -25 9 -34 29 -19 43 9
10 41 8 47 -2z m204 -37 c3 -40 2 -41 -30 -42 -18 0 -36 4 -40 11 -9 15 10 37
33 37 11 0 19 7 19 16 0 12 -7 15 -25 12 -13 -3 -22 -1 -19 4 3 5 18 8 32 6
24 -3 27 -8 30 -44z m94 33 c11 -18 10 -77 -2 -77 -5 0 -10 18 -10 41 0 33 -3
40 -17 37 -13 -2 -19 -14 -21 -41 -4 -52 -22 -47 -22 6 0 43 1 44 32 45 18 0
36 -5 40 -11z m93 3 c4 -6 -1 -7 -11 -3 -11 4 -22 -1 -30 -12 -18 -24 0 -59
27 -52 10 3 17 1 13 -4 -8 -13 -38 -11 -52 3 -27 27 -7 78 29 78 10 0 21 -4
24 -10z m103 -17 c3 -20 -1 -23 -28 -23 -40 0 -36 -22 6 -31 l29 -7 -33 -1
c-40 -1 -61 33 -42 68 16 30 64 26 68 -6z m-888 -48 c0 -8 -7 -15 -15 -15 -8
0 -15 7 -15 15 0 8 7 15 15 15 8 0 15 -7 15 -15z m-490 -5 c0 -5 -4 -10 -10
-10 -5 0 -10 5 -10 10 0 6 5 10 10 10 6 0 10 -4 10 -10z m598 -47 c-16 -2 -40
-2 -55 0 -16 2 -3 4 27 4 30 0 43 -2 28 -4z m-1031 -215 c-2 -35 -3 -7 -3 62
0 69 1 97 3 63 2 -35 2 -91 0 -125z m823 132 c0 -5 -4 -10 -10 -10 -5 0 -10 5
-10 10 0 6 5 10 10 10 6 0 10 -4 10 -10z m1830 -22 c-11 -18 -20 -42 -20 -53
0 -11 9 -35 20 -52 11 -18 15 -33 10 -33 -17 0 -44 52 -44 85 0 33 27 85 44
85 5 0 1 -15 -10 -32z m110 -52 c0 -19 -9 -45 -21 -60 -25 -32 -38 -27 -15 6
20 28 21 78 1 104 -24 32 -16 41 10 11 16 -18 25 -40 25 -61z m-2317 43 c22
-2 22 -2 0 -6 -18 -3 -23 -11 -23 -34 0 -21 6 -32 23 -39 22 -10 22 -10 -3 -7
-21 2 -25 8 -28 40 -2 26 -8 37 -20 38 -15 1 -15 2 1 6 9 2 18 12 18 21 1 15
2 15 6 0 2 -10 14 -19 26 -19z m670 0 c22 -2 22 -2 0 -6 -35 -7 -30 -61 7 -76
9 -4 4 -6 -10 -4 -21 2 -25 8 -28 40 -2 26 -8 37 -20 38 -15 1 -15 2 1 6 9 2
18 12 18 21 1 15 2 15 6 0 2 -10 14 -19 26 -19z m1350 0 c22 -2 22 -2 0 -6
-18 -3 -23 -11 -23 -34 0 -21 6 -32 23 -39 22 -10 22 -10 -3 -7 -21 2 -25 8
-28 40 -2 26 -8 37 -20 38 -15 1 -15 2 1 6 9 2 18 12 18 21 1 15 2 15 6 0 2
-10 14 -19 26 -19z m-2196 -5 c15 -24 15 -29 2 -53 -10 -18 -24 -27 -47 -29
l-32 -3 0 55 c0 55 0 56 30 56 21 0 35 -8 47 -26z m2020 0 c15 -24 15 -29 2
-53 -10 -18 -24 -27 -47 -29 l-32 -3 0 55 c0 55 0 56 30 56 21 0 35 -8 47 -26z
m-1929 -40 c3 -40 3 -41 -30 -40 -26 1 -33 5 -33 21 0 14 8 21 28 23 32 4 31
27 -1 26 -12 0 -19 3 -16 8 3 5 16 8 27 6 18 -2 23 -11 25 -44z m190 1 c3 -39
1 -41 -27 -43 -16 -1 -33 3 -36 8 -9 15 14 40 37 40 11 0 18 5 15 13 -2 6 -13
12 -25 11 -12 0 -19 3 -16 8 3 5 16 8 27 6 18 -2 23 -11 25 -43z m272 6 c0
-29 5 -41 18 -44 9 -3 -3 -5 -28 -5 -25 0 -37 2 -27 5 20 5 24 68 5 76 -7 3
-3 6 10 6 19 1 22 -4 22 -38z m118 -8 c2 -26 -1 -43 -7 -43 -6 0 -11 18 -11
41 0 52 -24 48 -28 -4 -4 -52 -22 -46 -22 7 0 42 1 43 33 42 30 -1 32 -3 35
-43z m92 38 c0 -5 -9 -7 -20 -4 -29 8 -25 -16 5 -27 14 -5 25 -16 25 -25 0
-18 -47 -32 -61 -18 -7 7 -2 9 15 6 34 -7 34 14 1 27 -24 9 -32 29 -18 43 10
10 53 8 53 -2z m198 -39 l3 -43 -33 3 c-25 2 -33 8 -33 23 0 13 8 21 23 23 12
2 22 10 22 19 0 11 -7 14 -25 11 -13 -3 -22 -1 -19 4 3 5 18 8 32 6 24 -3 27
-8 30 -46z m94 35 c11 -18 10 -77 -2 -77 -5 0 -10 18 -10 41 0 33 -3 40 -17
37 -13 -2 -19 -14 -21 -41 -4 -52 -22 -47 -22 6 0 43 1 44 32 45 18 0 36 -5
40 -11z m98 5 c0 -5 -10 -8 -22 -8 -19 1 -23 -4 -23 -29 0 -25 4 -30 23 -29
12 0 22 -3 22 -8 0 -16 -52 -4 -63 14 -17 26 7 68 38 68 14 0 25 -4 25 -8z
m98 -19 c3 -20 -1 -23 -28 -23 -40 0 -36 -22 6 -31 l29 -7 -33 -1 c-40 -1 -61
33 -42 68 16 30 64 26 68 -6z m378 -21 l1 -42 -4 40 c-4 41 -19 50 -41 28 -8
-8 -12 -9 -12 -1 0 13 19 22 40 20 10 -2 15 -15 16 -45z m92 36 c22 -22 13
-38 -19 -38 -36 0 -35 -21 2 -31 21 -6 21 -7 4 -8 -27 -1 -45 17 -45 44 0 23
17 45 35 45 6 0 16 -5 23 -12z m109 -25 c-3 -10 -5 -4 -5 12 0 17 2 24 5 18 2
-7 2 -21 0 -30z m281 -8 c3 -39 1 -41 -27 -43 -16 -1 -33 3 -36 8 -9 15 14 40
37 40 11 0 18 5 15 13 -2 6 -13 12 -25 11 -12 0 -19 3 -16 8 3 5 16 8 27 6 18
-2 23 -11 25 -43z m190 33 c7 -7 12 -26 12 -44 0 -30 -2 -32 -32 -31 -26 2
-33 6 -33 22 0 13 8 21 23 23 12 2 22 10 22 19 0 11 -7 14 -25 11 -13 -3 -22
-1 -19 3 8 13 38 11 52 -3z m272 -3 c0 -8 -4 -15 -9 -15 -13 0 -22 16 -14 24
11 11 23 6 23 -9z m-813 -32 c-3 -10 -5 -4 -5 12 0 17 2 24 5 18 2 -7 2 -21 0
-30z m-329 20 c-10 -2 -28 -2 -40 0 -13 2 -5 4 17 4 22 1 32 -1 23 -4z m0 -30
c-10 -2 -28 -2 -40 0 -13 2 -5 4 17 4 22 1 32 -1 23 -4z m-1068 -18 c0 -8 -7
-15 -15 -15 -8 0 -15 7 -15 15 0 8 7 15 15 15 8 0 15 -7 15 -15z m2216 0 c8
-19 -13 -45 -35 -45 -13 0 -13 2 -2 9 8 5 11 16 8 24 -3 8 -3 18 0 21 11 10
23 6 29 -9z m-756 -5 c0 -5 -2 -10 -4 -10 -3 0 -8 5 -11 10 -3 6 -1 10 4 10 6
0 11 -4 11 -10z m-1352 -47 c-16 -2 -40 -2 -55 0 -16 2 -3 4 27 4 30 0 43 -2
28 -4z m-690 -108 c2 -17 11 -36 20 -42 15 -12 15 -13 0 -13 -12 0 -18 -11
-20 -37 -2 -29 -8 -39 -23 -41 -19 -4 -19 -3 -2 10 14 11 18 27 18 73 0 46 -4
62 -18 73 -17 13 -17 14 2 10 14 -2 21 -12 23 -33z m1252 -205 c0 -5 -4 -10
-10 -10 -5 0 -10 5 -10 10 0 6 5 10 10 10 6 0 10 -4 10 -10z m-1047 -31 c22
-2 22 -2 0 -6 -19 -4 -23 -11 -23 -38 0 -27 5 -35 23 -38 19 -5 19 -5 -3 -4
-21 2 -25 8 -28 40 -2 26 -8 37 -20 38 -15 1 -15 2 1 6 9 2 18 12 18 21 1 15
2 15 6 0 2 -10 14 -19 26 -19z m670 0 c22 -2 22 -2 0 -6 -18 -3 -23 -11 -23
-34 0 -21 6 -32 23 -39 22 -10 22 -10 -3 -7 -21 2 -25 8 -28 40 -2 26 -8 37
-20 38 -15 1 -15 2 1 6 9 2 18 12 18 21 1 15 2 15 6 0 2 -10 14 -19 26 -19z
m657 16 c0 -8 10 -16 23 -16 l22 -2 -22 -4 c-19 -4 -23 -11 -23 -38 0 -27 5
-35 23 -38 15 -4 12 -5 -8 -4 -27 2 -30 6 -33 40 -2 26 -8 37 -20 38 -15 1
-15 2 1 6 9 2 17 11 17 19 0 8 5 14 10 14 6 0 10 -7 10 -15z m-833 -21 c15
-24 15 -29 2 -53 -10 -18 -24 -27 -47 -29 l-32 -3 0 55 c0 55 0 56 30 56 21 0
35 -8 47 -26z m-726 -42 c-4 -54 -11 -53 -11 3 0 27 3 45 7 41 4 -4 6 -24 4
-44z m56 28 c3 -10 2 -11 -4 -4 -4 6 -15 14 -23 17 -11 5 -9 6 4 4 11 -1 21
-9 23 -17z m81 8 c22 -22 13 -38 -19 -38 -39 0 -34 -22 7 -31 28 -6 28 -7 3
-8 -14 0 -30 4 -37 11 -24 24 -8 78 23 78 6 0 16 -5 23 -12z m170 -66 c11 2
19 17 23 43 l6 40 2 -46 c1 -44 0 -46 -26 -45 -26 1 -28 4 -29 44 l-1 42 4
-41 c3 -31 8 -40 21 -37z m129 58 c4 -12 3 -13 -5 -1 -17 24 -40 5 -45 -36
l-4 -38 -1 42 c-2 41 7 54 37 50 8 -1 16 -9 18 -17z m89 -30 l1 -45 -4 43 c-3
34 -8 43 -21 40 -11 -2 -19 -17 -23 -43 l-6 -40 -2 46 c-1 44 0 46 27 45 25
-1 27 -4 28 -46z m292 5 c3 -39 1 -41 -27 -43 -16 -1 -33 3 -36 8 -9 15 14 40
37 40 11 0 18 5 15 13 -2 6 -13 12 -25 11 -12 0 -19 3 -16 8 3 5 16 8 27 6 18
-2 23 -11 25 -43z m190 33 c7 -7 12 -26 12 -44 0 -30 -2 -32 -32 -31 -26 2
-33 6 -33 22 0 13 8 21 23 23 12 2 22 10 22 19 0 11 -7 14 -25 11 -13 -3 -22
-1 -19 3 8 13 38 11 52 -3z m272 -27 c0 -29 5 -41 18 -44 9 -3 -3 -5 -28 -5
-25 0 -37 2 -27 5 20 5 24 68 5 76 -7 3 -3 6 10 6 19 1 22 -4 22 -38z m116
-11 l2 -45 -7 40 c-8 53 -35 55 -39 3 -4 -53 -22 -48 -22 6 0 44 0 44 33 43
31 -2 32 -4 33 -47z m94 41 c0 -5 -9 -7 -20 -4 -29 8 -25 -16 5 -27 14 -5 25
-16 25 -25 0 -18 -47 -32 -61 -18 -7 7 -2 9 15 6 34 -7 34 14 1 27 -24 9 -32
29 -18 43 10 10 53 8 53 -2z m198 -39 l3 -43 -33 3 c-25 2 -33 8 -33 23 0 13
8 21 23 23 12 2 22 10 22 19 0 11 -7 14 -25 11 -13 -3 -22 -1 -19 4 3 5 18 8
32 6 24 -3 27 -8 30 -46z m100 1 c2 -26 -1 -43 -7 -43 -6 0 -11 18 -11 40 0
59 -33 48 -43 -15 -3 -22 -4 -18 -6 16 -1 46 -1 46 32 45 30 -1 32 -3 35 -43z
m92 39 c0 -5 -10 -8 -22 -8 -19 1 -23 -4 -23 -29 0 -25 4 -30 23 -29 12 0 22
-3 22 -8 0 -16 -52 -4 -63 14 -17 26 7 68 38 68 14 0 25 -4 25 -8z m98 -19 c3
-20 -1 -23 -28 -23 -40 0 -36 -22 6 -31 l29 -7 -33 -1 c-25 -1 -35 4 -41 22
-14 38 7 69 44 65 12 -2 21 -12 23 -25z m72 12 c0 -8 -4 -15 -9 -15 -13 0 -22
16 -14 24 11 11 23 6 23 -9z m-960 -60 c0 -8 -7 -15 -15 -15 -8 0 -15 7 -15
15 0 8 7 15 15 15 8 0 15 -7 15 -15z m966 0 c8 -19 -13 -45 -35 -45 -13 0 -13
2 -2 9 8 5 11 16 8 24 -3 8 -3 18 0 21 11 10 23 6 29 -9z m-858 -52 c-16 -2
-40 -2 -55 0 -16 2 -3 4 27 4 30 0 43 -2 28 -4z m-1561 -109 c1 -25 0 -26 -4
-4 -3 14 -10 29 -17 33 -7 6 -6 7 4 4 8 -2 16 -16 17 -33z m28 -52 c-3 -3 -11
0 -18 7 -9 10 -8 11 6 5 10 -3 15 -9 12 -12z m-29 -68 c-3 -8 -11 -14 -18 -13
-10 0 -10 2 0 6 6 2 13 19 13 36 1 25 3 27 6 9 3 -13 2 -30 -1 -38z m294 -383
c0 -38 4 -61 13 -64 6 -3 -4 -5 -23 -5 -19 0 -27 2 -17 5 13 4 17 15 17 58 0
33 -5 55 -12 58 -8 3 -6 6 5 6 14 1 17 -8 17 -58z m100 49 c0 -5 -4 -10 -10
-10 -5 0 -10 5 -10 10 0 6 5 10 10 10 6 0 10 -4 10 -10z m1250 0 c0 -5 -4 -10
-10 -10 -5 0 -10 5 -10 10 0 6 5 10 10 10 6 0 10 -4 10 -10z m1350 0 c0 -5 -4
-10 -10 -10 -5 0 -10 5 -10 10 0 6 5 10 10 10 6 0 10 -4 10 -10z m188 3 c-15
-4 -18 -16 -18 -78 0 -62 3 -74 18 -78 13 -4 11 -5 -5 -6 -22 -1 -23 2 -23 84
0 82 1 85 23 84 16 -1 18 -2 5 -6z m99 1 c-3 -3 -12 -4 -19 -1 -8 3 -5 6 6 6
11 1 17 -2 13 -5z m-2417 -19 c0 -8 10 -16 23 -16 l22 -2 -22 -4 c-19 -4 -23
-11 -23 -38 0 -27 5 -35 23 -38 15 -4 12 -5 -8 -4 -27 2 -30 6 -33 40 -2 26
-8 37 -20 38 -15 1 -15 2 1 6 9 2 17 11 17 19 0 8 5 14 10 14 6 0 10 -7 10
-15z m290 0 c0 -8 10 -16 23 -16 l22 -2 -22 -4 c-19 -4 -23 -11 -23 -38 0 -27
5 -35 23 -38 15 -4 12 -5 -8 -4 -27 2 -30 6 -33 40 -2 26 -8 37 -20 38 -15 1
-15 2 1 6 9 2 17 11 17 19 0 8 5 14 10 14 6 0 10 -7 10 -15z m778 -5 c-7 -10
-14 -17 -17 -15 -4 4 18 35 25 35 2 0 -1 -9 -8 -20z m585 -11 c22 -2 22 -2 0
-6 -18 -3 -23 -11 -23 -34 0 -21 6 -32 23 -39 22 -10 22 -10 -3 -7 -21 2 -25
8 -28 40 -2 26 -8 37 -20 38 -15 1 -15 2 1 6 9 2 18 12 18 21 1 15 2 15 6 0 2
-10 14 -19 26 -19z m-1519 12 c3 -4 -5 -6 -18 -4 -33 7 -53 -29 -37 -64 9 -19
17 -24 36 -21 13 3 22 1 19 -3 -8 -13 -48 -11 -62 3 -7 7 -12 26 -12 43 0 17
5 36 12 43 14 14 54 16 62 3z m1316 -4 c-18 -9 -25 -21 -25 -42 0 -21 7 -33
25 -43 l25 -13 -25 3 c-14 2 -31 14 -39 29 -13 24 -13 29 2 53 10 15 27 26 40
26 21 0 21 -1 -3 -13z m1147 -34 c-3 -10 -5 -2 -5 17 0 19 2 27 5 18 2 -10 2
-26 0 -35z m-1429 6 c-3 -8 -7 -3 -11 10 -4 17 -3 21 5 13 5 -5 8 -16 6 -23z
m-2057 -25 c-2 -32 0 -35 21 -32 16 2 25 12 29 33 6 28 7 28 8 5 1 -30 -15
-50 -40 -50 -10 0 -19 -10 -22 -22 -2 -13 -5 8 -6 46 0 38 2 66 6 62 4 -4 6
-23 4 -42z m46 40 c-3 -3 -12 -4 -19 -1 -8 3 -5 6 6 6 11 1 17 -2 13 -5z m71
-72 c11 2 19 17 23 43 l6 40 2 -42 c1 -34 -3 -43 -19 -48 -31 -10 -40 2 -38
48 l1 42 4 -43 c3 -34 8 -43 21 -40z m129 58 c4 -13 3 -13 -6 0 -9 12 -14 13
-31 2 -11 -7 -20 -8 -20 -3 0 23 51 24 57 1z m160 14 c-3 -3 -12 -4 -19 -1 -8
3 -5 6 6 6 11 1 17 -2 13 -5z m120 0 c-3 -3 -12 -4 -19 -1 -8 3 -5 6 6 6 11 1
17 -2 13 -5z m204 -21 c-5 -18 -15 -29 -29 -31 -30 -5 -28 -22 3 -22 29 0 45
-27 24 -41 -8 -5 -25 -8 -39 -7 -23 3 -25 7 -26 53 -2 59 8 75 46 75 26 0 28
-2 21 -27z m97 0 c3 -20 -1 -23 -28 -23 -40 0 -36 -22 6 -31 l29 -7 -33 -1
c-25 -1 -35 4 -41 22 -14 38 7 69 44 65 12 -2 21 -12 23 -25z m290 -19 c3 -40
2 -41 -30 -42 -18 0 -36 4 -40 11 -9 15 10 37 33 37 11 0 19 7 19 16 0 12 -7
15 -25 12 -13 -3 -22 -1 -19 4 3 5 18 8 32 6 24 -3 27 -8 30 -44z m190 19 c3
-20 -1 -23 -28 -23 -40 0 -36 -22 6 -31 l29 -7 -33 -1 c-25 -1 -35 4 -41 22
-14 38 7 69 44 65 12 -2 21 -12 23 -25z m104 20 c-6 -2 -9 -9 -6 -14 8 -14
-15 -39 -37 -39 -11 0 -19 -4 -19 -10 0 -5 13 -10 29 -10 17 0 33 -5 36 -10
12 -19 -17 -41 -49 -38 -30 3 -31 4 -29 53 4 70 7 75 50 74 21 0 32 -3 25 -6z
m86 -5 c31 -31 3 -82 -40 -76 -18 2 -24 10 -26 37 -5 46 36 69 66 39z m106 -3
c3 -8 1 -15 -3 -15 -5 0 -11 5 -13 12 -9 26 -38 -2 -38 -37 0 -19 -4 -35 -10
-35 -5 0 -10 20 -10 43 0 43 1 44 34 45 22 1 36 -4 40 -13z m66 -24 c0 -29 5
-41 18 -44 9 -3 -3 -5 -28 -5 -25 0 -37 2 -27 5 20 5 24 68 5 76 -7 3 -3 6 10
6 19 1 22 -4 22 -38z m118 -7 c3 -40 3 -41 -30 -40 -26 1 -33 5 -33 21 0 14 8
21 28 23 32 4 31 27 -1 26 -12 0 -19 3 -16 8 3 5 16 8 27 6 18 -2 23 -11 25
-44z m92 37 c0 -5 -9 -7 -20 -4 -29 8 -25 -16 5 -27 14 -5 25 -16 25 -25 0
-18 -47 -32 -61 -18 -7 7 -2 9 15 6 34 -7 34 14 1 27 -24 9 -32 29 -18 43 10
10 53 8 53 -2z m272 -6 c0 -5 -5 -11 -11 -13 -6 -2 -11 4 -11 13 0 9 5 15 11
13 6 -2 11 -8 11 -13z m306 -30 c3 -39 1 -41 -27 -43 -16 -1 -33 3 -36 8 -9
15 14 40 37 40 11 0 18 5 15 13 -2 6 -13 12 -25 11 -12 0 -19 3 -16 8 3 5 16
8 27 6 18 -2 23 -11 25 -43z m190 33 c22 -22 13 -38 -19 -38 -39 0 -34 -22 7
-31 l29 -7 -33 -1 c-25 -1 -35 4 -41 22 -17 47 25 87 57 55z m103 -15 c-5 -18
-15 -29 -29 -31 -30 -5 -28 -22 3 -22 29 0 45 -27 24 -41 -8 -5 -25 -8 -39 -7
-23 3 -25 7 -25 48 -1 61 10 80 44 80 27 0 29 -2 22 -27z m98 5 c12 -33 2 -57
-27 -65 -42 -10 -68 40 -36 71 22 23 53 20 63 -6z m98 2 c4 -12 3 -13 -5 -1
-17 25 -42 5 -42 -34 0 -19 -4 -35 -10 -35 -5 0 -10 19 -10 43 0 41 1 43 32
42 19 0 33 -6 35 -15z m73 -19 c0 -22 5 -42 13 -44 6 -3 -6 -5 -28 -5 -22 0
-32 2 -22 5 20 5 24 68 5 76 -7 3 -3 6 10 6 19 1 22 -4 22 -38z m118 -6 c3
-40 2 -41 -30 -40 -26 0 -33 4 -33 20 0 14 8 21 27 25 30 6 26 24 -7 33 -12 4
-9 5 10 4 28 -2 30 -5 33 -42z m-1201 -12 c-3 -10 -5 -4 -5 12 0 17 2 24 5 18
2 -7 2 -21 0 -30z m-1460 5 c-3 -8 -6 -5 -6 6 -1 11 2 17 5 13 3 -3 4 -12 1
-19z m3010 -45 c-3 -10 -5 -2 -5 17 0 19 2 27 5 18 2 -10 2 -26 0 -35z m-1335
22 c0 -5 -5 -11 -11 -13 -6 -2 -11 4 -11 13 0 9 5 15 11 13 6 -2 11 -8 11 -13z
m-1636 -13 c-10 -2 -22 0 -28 6 -6 6 0 7 19 4 21 -5 23 -7 9 -10z m-293 1 c-7
-2 -19 -2 -25 0 -7 3 -2 5 12 5 14 0 19 -2 13 -5z m205 0 c-10 -2 -26 -2 -35
0 -10 3 -2 5 17 5 19 0 27 -2 18 -5z m1532 -18 c14 -19 14 -19 -2 -6 -10 7
-18 18 -18 24 0 6 1 8 3 6 1 -2 9 -13 17 -24z m1347 -21 c-3 -3 -12 -4 -19 -1
-8 3 -5 6 6 6 11 1 17 -2 13 -5z m-3330 -206 c-2 -35 -3 -7 -3 62 0 69 1 97 3
63 2 -35 2 -91 0 -125z m2083 132 c0 -5 -7 -10 -15 -10 -8 0 -15 5 -15 10 0 6
7 10 15 10 8 0 15 -4 15 -10z m-1637 -31 c22 -2 22 -2 0 -6 -17 -3 -23 -12
-24 -31 l-2 -27 -4 25 c-3 14 -10 28 -17 32 -8 6 -8 8 2 8 6 0 13 8 13 18 1
16 2 16 6 0 2 -10 14 -19 26 -19z m480 0 c22 -2 22 -2 0 -6 -17 -3 -23 -12
-24 -31 l-2 -27 -4 25 c-3 14 -10 28 -17 32 -8 6 -8 8 2 8 6 0 13 8 13 18 1
16 2 16 6 0 2 -10 14 -19 26 -19z m657 16 c0 -8 10 -16 23 -16 l22 -2 -22 -4
c-18 -3 -23 -11 -23 -34 0 -21 6 -32 23 -39 l22 -9 -22 0 c-24 -1 -43 25 -43
58 0 12 -6 21 -12 22 -10 0 -10 2 0 6 6 2 12 11 12 19 0 8 5 14 10 14 6 0 10
-7 10 -15z m-1359 -63 c-4 -54 -11 -53 -11 3 0 27 3 45 7 41 4 -4 6 -24 4 -44z
m53 32 c6 -15 4 -15 -11 -3 -10 7 -20 15 -22 16 -2 2 3 3 11 3 9 0 19 -7 22
-16z m84 4 c22 -22 13 -38 -19 -38 -36 0 -35 -21 2 -31 21 -6 21 -7 3 -8 -26
-1 -44 17 -44 44 0 23 17 45 35 45 6 0 16 -5 23 -12z m159 -65 c15 -12 15 -13
1 -13 -20 0 -29 22 -26 63 l1 32 4 -35 c2 -19 11 -41 20 -47z m43 31 c0 -25
-4 -43 -8 -40 -7 4 -4 86 4 86 2 0 4 -21 4 -46z m97 26 c4 -13 3 -13 -6 0 -16
23 -45 0 -52 -41 -6 -32 -6 -32 -8 11 -1 45 0 46 31 45 19 0 33 -6 35 -15z
m89 -28 l1 -42 -4 41 c-6 55 -35 51 -44 -6 l-6 -40 -2 42 c-1 41 8 54 39 50
10 -2 15 -15 16 -45z m290 0 l1 -42 -4 40 c-4 41 -19 50 -41 28 -8 -8 -12 -9
-12 -1 0 13 19 22 40 20 10 -2 15 -15 16 -45z m74 9 c0 -22 5 -42 13 -44 6 -3
-4 -5 -23 -5 -19 0 -27 2 -17 5 20 5 24 68 5 76 -8 3 -6 6 5 6 13 1 17 -7 17
-38z m93 32 c-30 -6 -29 -21 3 -33 31 -12 29 -44 -4 -46 -19 -1 -19 -1 -2 3
27 6 25 21 -5 35 -38 17 -32 49 9 47 19 -2 19 -2 -1 -6z m221 -2 c4 -5 -2 -7
-12 -4 -10 2 -25 -3 -32 -12 -18 -22 -1 -50 29 -49 14 0 18 -3 12 -9 -5 -5
-21 -7 -35 -3 -45 11 -31 86 15 86 10 0 20 -4 23 -9z m94 -37 c3 -40 3 -41
-30 -40 -26 1 -33 5 -33 21 0 14 8 21 28 23 32 4 31 27 -1 26 -12 0 -19 3 -16
8 3 5 16 8 27 6 18 -2 23 -11 25 -44z m190 34 c22 -22 13 -38 -19 -38 -36 0
-35 -21 2 -31 l24 -7 -25 -1 c-31 -1 -50 16 -50 44 0 25 18 45 40 45 9 0 21
-5 28 -12z m103 -15 c-5 -18 -15 -29 -29 -31 -30 -5 -28 -22 3 -22 29 0 45
-27 24 -41 -8 -5 -25 -8 -39 -7 -23 3 -25 7 -26 53 -2 59 8 75 46 75 26 0 28
-2 21 -27z m98 5 c12 -32 2 -57 -25 -64 -30 -8 -54 11 -54 40 0 47 63 66 79
24z m96 11 c4 -5 4 -13 0 -17 -3 -3 -10 0 -15 8 -13 21 -38 -4 -43 -43 -3 -25
-4 -22 -5 13 -2 44 -1 46 27 48 16 1 33 -3 36 -9z m65 -28 c0 -29 5 -41 18
-44 9 -3 -1 -5 -23 -5 -22 0 -32 2 -22 5 12 3 17 14 17 38 0 24 -5 35 -17 38
-14 4 -12 5 5 6 19 1 22 -4 22 -38z m128 -7 c3 -40 2 -41 -30 -42 -18 0 -36 4
-40 11 -9 15 10 37 33 37 11 0 19 7 19 16 0 12 -7 15 -25 12 -13 -3 -22 -1
-19 4 3 5 18 8 32 6 24 -3 27 -8 30 -44z m86 37 c4 -5 -2 -7 -13 -4 -30 8 -35
-16 -6 -27 17 -7 25 -16 23 -28 -4 -19 -45 -29 -60 -14 -6 6 -1 8 15 5 34 -7
44 15 13 27 -25 9 -34 29 -19 43 9 10 41 8 47 -2z m78 -6 c0 -5 -5 -11 -11
-13 -6 -2 -11 4 -11 13 0 9 5 15 11 13 6 -2 11 -8 11 -13z m-1052 -60 c0 -8
-7 -15 -15 -15 -8 0 -15 7 -15 15 0 8 7 15 15 15 8 0 15 -7 15 -15z m1060 -9
c0 -22 -17 -36 -43 -36 -7 0 -5 5 5 10 10 6 14 18 11 30 -4 14 0 20 11 20 10
0 16 -9 16 -24z m-1919 -4 c-7 -2 -18 1 -23 6 -8 8 -4 9 13 5 13 -4 18 -8 10
-11z m480 0 c-7 -2 -18 1 -23 6 -8 8 -4 9 13 5 13 -4 18 -8 10 -11z m-884
-148 c1 -25 0 -26 -4 -4 -3 14 -10 29 -17 33 -7 6 -6 7 4 4 8 -2 16 -16 17
-33z m28 -52 c-3 -3 -11 0 -18 7 -9 10 -8 11 6 5 10 -3 15 -9 12 -12z m-29
-68 c-3 -8 -11 -14 -18 -13 -10 0 -10 2 0 6 6 2 13 19 13 36 1 25 3 27 6 9 3
-13 2 -30 -1 -38z m294 -383 c0 -38 4 -61 13 -64 6 -3 -4 -5 -23 -5 -19 0 -27
2 -17 5 13 4 17 15 17 58 0 33 -5 55 -12 58 -8 3 -6 6 5 6 14 1 17 -8 17 -58z
m100 49 c0 -5 -4 -10 -10 -10 -5 0 -10 5 -10 10 0 6 5 10 10 10 6 0 10 -4 10
-10z m890 -53 l0 -64 -31 -1 c-22 0 -33 5 -41 22 -13 30 5 66 32 66 13 0 20 7
20 20 0 11 5 20 10 20 6 0 10 -28 10 -63z m1150 0 c0 -62 0 -63 -30 -65 -25
-2 -31 2 -36 24 -8 33 6 58 35 62 13 2 21 11 21 23 0 10 2 19 5 19 3 0 5 -28
5 -63z m363 56 c-9 -3 -13 -29 -13 -78 0 -49 4 -75 13 -78 7 -3 5 -6 -5 -6
-16 -1 -18 9 -18 84 0 75 2 85 18 84 10 0 12 -3 5 -6z m107 -78 c0 -82 -1 -85
-22 -84 -17 1 -19 2 -5 6 14 4 17 16 17 78 0 62 -3 74 -17 78 -14 4 -12 5 5 6
21 1 22 -2 22 -84z m200 81 c0 -2 -7 -7 -16 -10 -8 -3 -12 -2 -9 4 6 10 25 14
25 6z m-2240 -21 c0 -8 10 -16 23 -16 l22 -2 -22 -4 c-19 -4 -23 -11 -23 -38
0 -27 5 -35 23 -38 15 -4 12 -5 -8 -4 -27 2 -30 6 -33 40 -2 26 -8 37 -20 38
-15 1 -15 2 1 6 9 2 17 11 17 19 0 8 5 14 10 14 6 0 10 -7 10 -15z m593 -16
c22 -2 22 -2 0 -6 -35 -7 -30 -61 7 -76 9 -4 4 -6 -10 -4 -21 2 -25 8 -28 40
-2 26 -8 37 -20 38 -15 1 -15 2 1 6 9 2 18 12 18 21 1 15 2 15 6 0 2 -10 14
-19 26 -19z m1137 16 c0 -8 10 -16 23 -16 l22 -2 -22 -4 c-19 -4 -23 -11 -23
-39 0 -28 4 -34 23 -35 19 -1 20 -2 3 -6 -23 -6 -46 21 -46 54 0 13 -6 23 -12
24 -10 0 -10 2 0 6 6 2 12 11 12 19 0 8 5 14 10 14 6 0 10 -7 10 -15z m-1599
-11 c16 -20 1 -48 -30 -52 -13 -2 -21 -11 -21 -23 0 -10 -4 -19 -10 -19 -5 0
-10 25 -10 55 0 54 1 55 29 55 16 0 34 -7 42 -16z m1143 10 c32 -12 11 -64
-25 -64 -10 0 -19 -10 -22 -22 -2 -13 -5 3 -6 35 -1 60 8 68 53 51z m-2163
-60 c-2 -32 0 -35 21 -32 16 2 25 12 29 33 6 28 7 28 8 5 1 -30 -15 -50 -40
-50 -10 0 -19 -10 -22 -22 -2 -13 -5 8 -6 46 0 38 2 66 6 62 4 -4 6 -23 4 -42z
m46 40 c-3 -3 -12 -4 -19 -1 -8 3 -5 6 6 6 11 1 17 -2 13 -5z m71 -72 c11 2
19 17 23 43 l6 40 2 -42 c1 -34 -3 -43 -19 -48 -31 -10 -40 2 -38 48 l1 42 4
-43 c3 -34 8 -43 21 -40z m129 58 c4 -13 3 -13 -6 0 -9 12 -14 13 -31 2 -11
-7 -20 -8 -20 -3 0 23 51 24 57 1z m160 14 c-3 -3 -12 -4 -19 -1 -8 3 -5 6 6
6 11 1 17 -2 13 -5z m120 0 c-3 -3 -12 -4 -19 -1 -8 3 -5 6 6 6 11 1 17 -2 13
-5z m204 -21 c-5 -18 -15 -29 -29 -31 -30 -5 -28 -22 3 -22 29 0 45 -27 24
-41 -8 -5 -25 -8 -39 -7 -23 3 -25 7 -26 53 -2 59 8 75 46 75 26 0 28 -2 21
-27z m97 0 c3 -20 -1 -23 -28 -23 -40 0 -36 -22 6 -31 l29 -7 -33 -1 c-25 -1
-35 4 -41 22 -14 38 7 69 44 65 12 -2 21 -12 23 -25z m290 7 c4 -13 3 -13 -11
-2 -23 19 -37 6 -37 -34 0 -19 -4 -34 -10 -34 -5 0 -10 20 -10 44 0 43 1 44
32 43 18 -1 33 -8 36 -17z m92 6 c28 -35 -11 -93 -47 -70 -36 22 -23 84 17 84
10 0 23 -7 30 -14z m160 -61 c10 0 16 12 18 38 4 52 22 47 22 -7 0 -44 0 -44
-32 -43 -32 2 -33 4 -34 47 l-2 45 7 -40 c4 -26 11 -40 21 -40z m231 54 c16
-31 -3 -69 -36 -69 -17 0 -29 8 -36 24 -15 32 4 66 36 66 15 0 29 -9 36 -21z
m83 12 c4 -5 -2 -7 -13 -4 -30 8 -35 -16 -6 -27 35 -13 30 -44 -8 -48 -15 -2
-27 1 -27 6 0 6 8 8 19 5 30 -8 35 16 7 27 -25 9 -34 29 -19 43 9 10 41 8 47
-2z m276 -6 c0 -8 -4 -15 -10 -15 -5 0 -10 7 -10 15 0 8 5 15 10 15 6 0 10 -7
10 -15z m315 4 c4 -5 4 -13 0 -17 -3 -3 -10 0 -15 7 -14 24 -39 4 -43 -36 -4
-37 -4 -37 -5 7 -2 44 -1 46 27 48 16 1 33 -3 36 -9z m94 -11 c12 -33 2 -57
-27 -65 -42 -10 -68 40 -36 71 22 23 53 20 63 -6z m141 -19 c0 -33 3 -40 18
-37 11 2 19 16 23 43 l6 40 2 -45 c1 -43 -1 -46 -26 -48 -15 -1 -30 4 -35 10
-11 18 -10 78 2 78 6 0 10 -18 10 -41z m240 27 c28 -35 -11 -93 -47 -70 -36
22 -23 84 17 84 10 0 23 -7 30 -14z m-1003 -48 c-2 -13 -4 -5 -4 17 -1 22 1
32 4 23 2 -10 2 -28 0 -40z m120 0 c-2 -13 -4 -5 -4 17 -1 22 1 32 4 23 2 -10
2 -28 0 -40z m-1390 10 c-3 -8 -6 -5 -6 6 -1 11 2 17 5 13 3 -3 4 -12 1 -19z
m2620 8 c0 -8 -6 -12 -15 -9 -11 5 -11 7 0 14 7 5 13 9 14 9 0 0 1 -6 1 -14z
m-1137 -31 c0 -8 -4 -15 -10 -15 -5 0 -10 7 -10 15 0 8 5 15 10 15 6 0 10 -7
10 -15z m-1444 -13 c-10 -2 -22 0 -28 6 -6 6 0 7 19 4 21 -5 23 -7 9 -10z
m-293 1 c-7 -2 -19 -2 -25 0 -7 3 -2 5 12 5 14 0 19 -2 13 -5z m205 0 c-10 -2
-26 -2 -35 0 -10 3 -2 5 17 5 19 0 27 -2 18 -5z m1351 -37 c-3 -3 -11 5 -18
17 -13 21 -12 21 5 5 10 -10 16 -20 13 -22z m1346 -4 c-3 -3 -11 0 -18 7 -9
10 -8 11 6 5 10 -3 15 -9 12 -12z m-3148 -204 c-2 -35 -3 -7 -3 62 0 69 1 97
3 63 2 -35 2 -91 0 -125z m1713 79 l0 -64 -32 1 c-28 1 -33 5 -36 29 -4 33 13
57 39 57 12 0 19 7 19 20 0 11 2 20 5 20 3 0 5 -29 5 -63z m-1267 22 c22 -2
22 -2 0 -6 -17 -3 -23 -12 -24 -31 l-2 -27 -4 25 c-3 14 -10 28 -17 32 -8 6
-8 8 2 8 6 0 13 8 13 18 1 16 2 16 6 0 2 -10 14 -19 26 -19z m480 0 c22 -2 22
-2 0 -6 -17 -3 -23 -12 -24 -31 l-2 -27 -4 25 c-3 14 -10 28 -17 32 -8 6 -8 8
2 8 6 0 13 8 13 18 1 16 2 16 6 0 2 -10 14 -19 26 -19z m947 16 c0 -8 10 -16
23 -16 l22 -2 -22 -4 c-18 -3 -23 -11 -23 -34 0 -21 6 -32 23 -39 21 -9 21 -9
-4 -9 -28 -1 -39 14 -39 55 0 13 -6 24 -12 25 -10 0 -10 2 0 6 6 2 12 11 12
19 0 8 5 14 10 14 6 0 10 -7 10 -15z m-1649 -63 c-4 -54 -11 -53 -11 3 0 27 3
45 7 41 4 -4 6 -24 4 -44z m53 32 c6 -15 4 -15 -11 -3 -10 7 -20 15 -22 16 -2
2 3 3 11 3 9 0 19 -7 22 -16z m84 4 c22 -22 13 -38 -19 -38 -36 0 -35 -21 2
-31 21 -6 21 -7 3 -8 -26 -1 -44 17 -44 44 0 23 17 45 35 45 6 0 16 -5 23 -12z
m159 -65 c15 -12 15 -13 1 -13 -20 0 -29 22 -26 63 l1 32 4 -35 c2 -19 11 -41
20 -47z m43 31 c0 -25 -4 -43 -8 -40 -7 4 -4 86 4 86 2 0 4 -21 4 -46z m97 26
c4 -13 3 -13 -6 0 -16 23 -45 0 -52 -41 -6 -32 -6 -32 -8 11 -1 45 0 46 31 45
19 0 33 -6 35 -15z m89 -28 l1 -42 -4 41 c-6 55 -35 51 -44 -6 l-6 -40 -2 42
c-1 41 8 54 39 50 10 -2 15 -15 16 -45z m290 0 l1 -42 -4 40 c-4 41 -19 50
-41 28 -8 -8 -12 -9 -12 -1 0 13 19 22 40 20 10 -2 15 -15 16 -45z m74 9 c0
-22 5 -42 13 -44 6 -3 -4 -5 -23 -5 -19 0 -27 2 -17 5 20 5 24 68 5 76 -8 3
-6 6 5 6 13 1 17 -7 17 -38z m93 32 c-30 -6 -29 -21 3 -33 31 -12 29 -44 -4
-46 -19 -1 -19 -1 -2 3 27 6 25 21 -5 35 -38 17 -32 49 9 47 19 -2 19 -2 -1
-6z m225 -26 c4 -33 -13 -57 -39 -57 -10 0 -19 -9 -22 -22 -2 -13 -5 7 -6 43
l-1 66 33 -1 c27 -1 32 -5 35 -29z m98 22 c3 -6 3 -13 -1 -17 -3 -3 -10 -1
-14 6 -14 24 -41 2 -41 -34 0 -19 -4 -34 -10 -34 -5 0 -10 20 -10 43 0 43 1
44 35 45 19 1 37 -3 41 -9z m95 -10 c16 -31 -3 -69 -36 -69 -17 0 -29 8 -36
24 -15 32 4 66 36 66 15 0 29 -9 36 -21z m139 -19 c0 -59 33 -48 43 15 3 22 4
18 6 -16 1 -46 1 -46 -31 -45 -31 1 -33 3 -36 44 -2 25 1 42 7 42 6 0 11 -18
11 -40z m240 26 c28 -35 -11 -93 -47 -70 -36 22 -23 84 17 84 10 0 23 -7 30
-14z m90 5 c0 -5 -9 -7 -20 -4 -29 8 -25 -16 6 -27 16 -7 24 -16 22 -28 -4
-19 -45 -29 -60 -14 -6 6 0 8 16 5 34 -7 34 14 1 29 -24 11 -32 28 -18 41 10
10 53 8 53 -2z m82 -6 c0 -5 -5 -11 -11 -13 -6 -2 -11 4 -11 13 0 9 5 15 11
13 6 -2 11 -8 11 -13z m-862 -60 c0 -8 -7 -15 -15 -15 -8 0 -15 7 -15 15 0 8
7 15 15 15 8 0 15 -7 15 -15z m870 -3 c0 -22 -19 -42 -39 -42 -14 1 -14 2 1
10 10 6 14 18 11 30 -4 14 0 20 11 20 9 0 16 -8 16 -18z m-1729 -10 c-7 -2
-18 1 -23 6 -8 8 -4 9 13 5 13 -4 18 -8 10 -11z m480 0 c-7 -2 -18 1 -23 6 -8
8 -4 9 13 5 13 -4 18 -8 10 -11z m-884 -148 c1 -25 0 -26 -4 -4 -3 14 -10 29
-17 33 -7 6 -6 7 4 4 8 -2 16 -16 17 -33z m28 -52 c-3 -3 -11 0 -18 7 -9 10
-8 11 6 5 10 -3 15 -9 12 -12z m-29 -68 c-3 -8 -11 -14 -18 -13 -10 0 -10 2 0
6 6 2 13 19 13 36 1 25 3 27 6 9 3 -13 2 -30 -1 -38z m-378 -122 c2 -18 10
-36 18 -39 13 -5 13 -7 0 -17 -8 -6 -16 -24 -18 -41 -2 -21 -9 -31 -23 -32
-11 -2 -14 0 -7 3 6 3 12 19 12 34 0 16 5 32 10 35 7 4 7 12 0 25 -5 10 -10
28 -10 39 0 10 -6 22 -12 25 -7 3 -4 5 7 3 15 -2 21 -11 23 -35z"/>
<path d="M3087 7473 c-4 -3 -7 -19 -7 -35 0 -43 34 -34 38 10 3 31 -13 44 -31
25z"/>
<path d="M384 7466 c-10 -26 1 -51 22 -54 24 -3 38 20 29 49 -7 22 -43 25 -51
5z"/>
<path d="M1065 7431 c-3 -5 -1 -12 5 -16 12 -7 30 2 30 16 0 12 -27 12 -35 0z"/>
<path d="M1257 7465 c-5 -11 0 -15 19 -15 16 0 24 5 22 13 -7 18 -35 20 -41 2z"/>
<path d="M1354 7469 c-10 -17 13 -36 27 -22 12 12 4 33 -11 33 -5 0 -12 -5
-16 -11z"/>
<path d="M1350 7385 c0 -8 9 -15 20 -15 11 0 20 7 20 15 0 8 -9 15 -20 15 -11
0 -20 -7 -20 -15z"/>
<path d="M1446 7462 c-9 -27 3 -54 23 -50 22 5 22 62 -1 66 -9 2 -19 -5 -22
-16z"/>
<path d="M1735 7431 c-3 -5 -1 -12 5 -16 12 -7 30 2 30 16 0 12 -27 12 -35 0z"/>
<path d="M2984 7466 c-10 -26 1 -51 22 -54 24 -3 38 20 29 49 -7 22 -43 25
-51 5z"/>
<path d="M3176 7465 c-4 -11 2 -15 24 -15 22 0 28 4 24 15 -4 8 -14 15 -24 15
-10 0 -20 -7 -24 -15z"/>
<path d="M3756 7465 c-4 -11 1 -15 19 -15 16 0 25 6 25 15 0 8 -9 15 -19 15
-10 0 -21 -7 -25 -15z"/>
<path d="M3855 7470 c-8 -14 3 -30 21 -30 8 0 14 9 14 20 0 21 -24 28 -35 10z"/>
<path d="M3850 7384 c0 -10 7 -14 22 -12 32 5 35 28 4 28 -17 0 -26 -5 -26
-16z"/>
<path d="M3944 7466 c-10 -26 1 -51 22 -54 24 -3 38 20 29 49 -7 22 -43 25
-51 5z"/>
<path d="M4235 7430 c-8 -12 20 -24 35 -15 5 3 10 10 10 16 0 12 -37 12 -45
-1z"/>
<path d="M1254 7226 c-9 -23 0 -51 16 -51 10 0 16 12 18 33 2 24 -1 32 -13 32
-8 0 -18 -6 -21 -14z"/>
<path d="M3567 7233 c-13 -12 -7 -63 6 -63 20 0 37 22 37 47 0 22 -27 33 -43
16z"/>
<path d="M960 7235 c0 -22 4 -26 23 -23 14 2 22 10 22 23 0 13 -8 21 -22 23
-19 3 -23 -1 -23 -23z"/>
<path d="M3270 7235 c0 -22 4 -26 23 -23 14 2 22 10 22 23 0 13 -8 21 -22 23
-19 3 -23 -1 -23 -23z"/>
<path d="M384 7226 c-10 -26 1 -51 22 -54 24 -3 38 20 29 49 -7 22 -43 25 -51
5z"/>
<path d="M1156 7222 c-9 -27 3 -54 23 -50 22 5 22 62 -1 66 -9 2 -19 -5 -22
-16z"/>
<path d="M1544 7226 c-9 -23 0 -51 17 -54 19 -4 32 23 24 49 -7 22 -33 25 -41
5z"/>
<path d="M2794 7226 c-10 -26 0 -51 21 -51 16 0 20 7 20 30 0 33 -30 49 -41
21z"/>
<path d="M2986 7225 c-4 -11 1 -15 19 -15 16 0 25 6 25 15 0 8 -9 15 -19 15
-10 0 -21 -7 -25 -15z"/>
<path d="M3464 7226 c-10 -26 1 -51 22 -54 24 -3 38 20 29 49 -7 22 -43 25
-51 5z"/>
<path d="M3851 7221 c-15 -27 -3 -53 23 -49 16 2 21 10 21 33 0 36 -28 46 -44
16z"/>
<path d="M1340 6546 c0 -39 3 -46 20 -46 27 0 48 45 33 68 -5 9 -20 18 -32 20
-19 3 -21 -1 -21 -42z"/>
<path d="M384 6556 c-10 -26 1 -51 22 -54 24 -3 38 20 29 49 -7 22 -43 25 -51
5z"/>
<path d="M1450 6514 c0 -9 7 -14 17 -12 25 5 28 28 4 28 -12 0 -21 -6 -21 -16z"/>
<path d="M1640 6514 c0 -9 7 -14 17 -12 25 5 28 28 4 28 -12 0 -21 -6 -21 -16z"/>
<path d="M2980 6064 c0 -41 2 -45 21 -42 43 6 42 88 -1 88 -17 0 -20 -6 -20
-46z"/>
<path d="M1067 6084 c-14 -14 -6 -24 19 -24 16 0 24 5 22 13 -5 14 -31 21 -41
11z"/>
<path d="M2410 6034 c0 -9 7 -14 17 -12 25 5 28 28 4 28 -12 0 -21 -6 -21 -16z"/>
<path d="M2707 6084 c-13 -13 -7 -24 14 -24 11 0 19 5 17 12 -5 14 -22 21 -31
12z"/>
<path d="M3085 6039 c-4 -6 -4 -13 -1 -16 8 -8 36 5 36 17 0 13 -27 13 -35 -1z"/>
<path d="M3275 6041 c-3 -5 -1 -12 4 -15 12 -8 41 3 41 15 0 12 -37 12 -45 0z"/>
<path d="M2322 5841 c-10 -28 -9 -31 9 -31 16 0 18 5 13 28 -9 37 -10 37 -22
3z"/>
<path d="M1255 5801 c-3 -5 -1 -12 5 -16 12 -7 30 2 30 16 0 12 -27 12 -35 0z"/>
<path d="M1457 5844 c-13 -13 -7 -24 14 -24 11 0 19 5 17 12 -5 14 -22 21 -31
12z"/>
<path d="M1544 5839 c-10 -17 13 -36 27 -22 12 12 4 33 -11 33 -5 0 -12 -5
-16 -11z"/>
<path d="M1540 5754 c0 -10 7 -14 22 -12 32 5 35 28 4 28 -17 0 -26 -5 -26
-16z"/>
<path d="M1641 5831 c-14 -25 -3 -53 18 -49 10 2 16 13 16 32 0 35 -20 45 -34
17z"/>
<path d="M1930 5794 c0 -9 7 -14 17 -12 25 5 28 28 4 28 -12 0 -21 -6 -21 -16z"/>
<path d="M2605 5799 c-4 -6 -4 -13 -1 -16 8 -8 36 5 36 17 0 13 -27 13 -35 -1z"/>
<path d="M2990 5794 c0 -9 7 -14 17 -12 25 5 28 28 4 28 -12 0 -21 -6 -21 -16z"/>
<path d="M3187 5843 c-13 -12 -7 -23 13 -23 11 0 20 7 20 15 0 15 -21 21 -33
8z"/>
<path d="M3275 5840 c-8 -14 3 -30 21 -30 8 0 14 9 14 20 0 21 -24 28 -35 10z"/>
<path d="M3270 5754 c0 -10 7 -14 22 -12 32 5 35 28 4 28 -17 0 -26 -5 -26
-16z"/>
<path d="M3374 5836 c-10 -26 0 -51 21 -51 16 0 20 7 20 30 0 33 -30 49 -41
21z"/>
<path d="M3660 5794 c0 -9 7 -14 17 -12 25 5 28 28 4 28 -12 0 -21 -6 -21 -16z"/>
<path d="M1446 5604 c-8 -21 -7 -26 3 -43 13 -21 41 4 41 35 0 28 -34 34 -44
8z"/>
<path d="M2984 5594 c-4 -14 -2 -30 4 -36 16 -16 42 8 42 38 0 34 -37 33 -46
-2z"/>
<path d="M2130 5621 c0 -5 -3 -16 -6 -25 -4 -11 0 -16 14 -16 15 0 18 5 14 25
-4 23 -22 36 -22 16z"/>
<path d="M2700 5615 c0 -20 4 -26 18 -23 9 2 17 12 17 23 0 11 -8 21 -17 23
-14 3 -18 -3 -18 -23z"/>
<path d="M1167 5614 c-4 -4 -7 -20 -7 -36 0 -23 4 -29 18 -26 11 2 17 13 17
32 0 29 -14 43 -28 30z"/>
<path d="M1351 5601 c-14 -25 -3 -53 18 -49 10 2 16 13 16 32 0 35 -20 45 -34
17z"/>
<path d="M1734 5606 c-10 -26 0 -51 21 -51 16 0 20 7 20 30 0 33 -30 49 -41
21z"/>
<path d="M2410 5564 c0 -9 7 -14 17 -12 25 5 28 28 4 28 -12 0 -21 -6 -21 -16z"/>
<path d="M2885 5601 c-8 -26 4 -51 25 -51 10 0 21 7 24 16 10 25 -3 54 -24 54
-10 0 -21 -8 -25 -19z"/>
<path d="M3274 5606 c-10 -26 0 -51 21 -51 16 0 20 7 20 30 0 33 -30 49 -41
21z"/>
<path d="M3270 4646 c0 -32 4 -46 14 -46 41 0 49 82 9 88 -21 3 -23 -1 -23
-42z"/>
<path d="M1834 4659 c-10 -17 13 -36 27 -22 12 12 4 33 -11 33 -5 0 -12 -5
-16 -11z"/>
<path d="M1830 4574 c0 -10 7 -14 22 -12 32 5 35 28 4 28 -17 0 -26 -5 -26
-16z"/>
<path d="M1937 4664 c-13 -13 -7 -24 14 -24 11 0 19 5 17 12 -5 14 -22 21 -31
12z"/>
<path d="M2505 4621 c-3 -5 -1 -12 5 -16 12 -7 30 2 30 16 0 12 -27 12 -35 0z"/>
<path d="M2797 4655 c-5 -11 0 -15 19 -15 16 0 24 5 22 13 -7 18 -35 20 -41 2z"/>
<path d="M3375 4619 c-4 -6 -4 -13 -1 -16 8 -8 36 5 36 17 0 13 -27 13 -35 -1z"/>
<path d="M3565 4621 c-3 -5 -1 -12 4 -15 12 -8 41 3 41 15 0 12 -37 12 -45 0z"/>
<path d="M1340 4406 c0 -39 3 -46 20 -46 27 0 48 45 33 68 -5 9 -20 18 -32 20
-19 3 -21 -1 -21 -42z"/>
<path d="M1450 4374 c0 -9 7 -14 17 -12 25 5 28 28 4 28 -12 0 -21 -6 -21 -16z"/>
<path d="M1640 4374 c0 -9 7 -14 17 -12 25 5 28 28 4 28 -12 0 -21 -6 -21 -16z"/>
<path d="M2315 4381 c-3 -5 -1 -12 5 -16 12 -7 30 2 30 16 0 12 -27 12 -35 0z"/>
<path d="M2607 4423 c-14 -13 -6 -23 18 -23 18 0 23 4 19 15 -6 16 -26 20 -37
8z"/>
<path d="M1060 4164 c0 -37 3 -45 16 -42 41 8 44 88 4 88 -17 0 -20 -7 -20
-46z"/>
<path d="M3080 4164 c0 -37 3 -45 16 -42 41 8 44 88 4 88 -17 0 -20 -7 -20
-46z"/>
<path d="M1160 4134 c0 -9 7 -14 17 -12 25 5 28 28 4 28 -12 0 -21 -6 -21 -16z"/>
<path d="M1350 4134 c0 -9 7 -14 17 -12 25 5 28 28 4 28 -12 0 -21 -6 -21 -16z"/>
<path d="M2025 4141 c-3 -5 -1 -12 5 -16 12 -7 30 2 30 16 0 12 -27 12 -35 0z"/>
<path d="M2317 4183 c-14 -13 -6 -23 18 -23 18 0 23 4 19 15 -6 16 -26 20 -37
8z"/>
<path d="M2797 4184 c-14 -14 -6 -24 19 -24 16 0 24 5 22 13 -5 14 -31 21 -41
11z"/>
<path d="M3180 4134 c0 -9 7 -14 17 -12 25 5 28 28 4 28 -12 0 -21 -6 -21 -16z"/>
<path d="M3375 4139 c-4 -6 -4 -13 -1 -16 8 -8 36 5 36 17 0 13 -27 13 -35 -1z"/>
<path d="M1540 3694 c0 -37 3 -45 16 -42 41 8 44 88 4 88 -17 0 -20 -7 -20
-46z"/>
<path d="M967 3714 c-14 -14 -6 -24 19 -24 16 0 24 5 22 13 -5 14 -31 21 -41
11z"/>
<path d="M1640 3664 c0 -9 7 -14 17 -12 25 5 28 28 4 28 -12 0 -21 -6 -21 -16z"/>
<path d="M1835 3669 c-4 -6 -4 -13 -1 -16 8 -8 36 5 36 17 0 13 -27 13 -35 -1z"/>
<path d="M2505 3671 c-3 -5 -1 -12 5 -16 12 -7 30 2 30 16 0 12 -27 12 -35 0z"/>
<path d="M2797 3705 c-5 -11 0 -15 19 -15 16 0 24 5 22 13 -7 18 -35 20 -41 2z"/>
<path d="M1160 2980 c0 -11 7 -20 15 -20 8 0 15 9 15 20 0 11 -7 20 -15 20 -8
0 -15 -9 -15 -20z"/>
<path d="M1157 2914 c-10 -11 3 -24 24 -24 10 0 19 7 19 15 0 15 -31 21 -43 9z"/>
<path d="M1257 2985 c-5 -11 0 -15 19 -15 16 0 24 5 22 13 -7 18 -35 20 -41 2z"/>
<path d="M1545 2951 c-3 -5 -1 -12 5 -16 12 -7 30 2 30 16 0 12 -27 12 -35 0z"/>
<path d="M1737 2985 c-5 -11 0 -15 19 -15 16 0 24 5 22 13 -7 18 -35 20 -41 2z"/>
<path d="M1834 2989 c-10 -17 13 -36 27 -22 12 12 4 33 -11 33 -5 0 -12 -5
-16 -11z"/>
<path d="M1830 2904 c0 -10 7 -14 22 -12 32 5 35 28 4 28 -17 0 -26 -5 -26
-16z"/>
<path d="M1926 2982 c-9 -27 3 -54 23 -50 22 5 22 62 -1 66 -9 2 -19 -5 -22
-16z"/>
<path d="M2220 2944 c0 -9 7 -14 17 -12 25 5 28 28 4 28 -12 0 -21 -6 -21 -16z"/>
<path d="M2890 2944 c0 -9 7 -14 17 -12 25 5 28 28 4 28 -12 0 -21 -6 -21 -16z"/>
<path d="M3087 2994 c-14 -14 -6 -24 19 -24 16 0 24 5 22 13 -5 14 -31 21 -41
11z"/>
<path d="M3180 2980 c0 -15 5 -20 18 -18 9 2 17 10 17 18 0 8 -8 16 -17 18
-13 2 -18 -3 -18 -18z"/>
<path d="M3175 2910 c-8 -13 20 -24 41 -16 20 8 9 26 -16 26 -10 0 -22 -5 -25
-10z"/>
<path d="M3274 2986 c-10 -26 0 -51 21 -51 16 0 20 7 20 30 0 33 -30 49 -41
21z"/>
<path d="M3565 2951 c-3 -5 -1 -12 4 -15 12 -8 41 3 41 15 0 12 -37 12 -45 0z"/>
<path d="M777 2764 c-14 -14 -6 -24 19 -24 16 0 24 5 22 13 -5 14 -31 21 -41
11z"/>
<path d="M1930 2714 c0 -9 7 -14 17 -12 25 5 28 28 4 28 -12 0 -21 -6 -21 -16z"/>
<path d="M2127 2764 c-13 -13 -7 -24 14 -24 11 0 19 5 17 12 -5 14 -22 21 -31
12z"/>
<path d="M2220 2750 c0 -11 7 -20 15 -20 8 0 15 9 15 20 0 11 -7 20 -15 20 -8
0 -15 -9 -15 -20z"/>
<path d="M2217 2684 c-10 -11 3 -24 24 -24 10 0 19 7 19 15 0 15 -31 21 -43 9z"/>
<path d="M2314 2756 c-9 -23 0 -51 17 -54 19 -4 32 23 24 49 -7 22 -33 25 -41
5z"/>
<path d="M2605 2721 c-3 -5 -1 -12 5 -16 12 -7 30 2 30 16 0 12 -27 12 -35 0z"/>
<path d="M1734 2036 c-9 -23 0 -51 16 -51 10 0 16 12 18 33 2 24 -1 32 -13 32
-8 0 -18 -6 -21 -14z"/>
<path d="M2885 2031 c-7 -23 3 -51 20 -51 14 0 25 22 25 51 0 25 -37 26 -45 0z"/>
<path d="M1450 2045 c0 -20 4 -26 18 -23 9 2 17 12 17 23 0 11 -8 21 -17 23
-14 3 -18 -3 -18 -23z"/>
<path d="M2600 2045 c0 -22 4 -26 23 -23 14 2 22 10 22 23 0 13 -8 21 -22 23
-19 3 -23 -1 -23 -23z"/>
<path d="M1160 2030 c0 -11 7 -20 15 -20 8 0 15 9 15 20 0 11 -7 20 -15 20 -8
0 -15 -9 -15 -20z"/>
<path d="M1157 1964 c-10 -11 3 -24 24 -24 10 0 19 7 19 15 0 15 -31 21 -43 9z"/>
<path d="M1257 2035 c-5 -11 0 -15 19 -15 16 0 24 5 22 13 -7 18 -35 20 -41 2z"/>
<path d="M1641 2031 c-14 -25 -3 -53 18 -49 10 2 16 13 16 32 0 35 -20 45 -34
17z"/>
<path d="M2024 2036 c-10 -26 0 -51 21 -51 16 0 20 7 20 30 0 33 -30 49 -41
21z"/>
<path d="M2794 2036 c-10 -26 0 -51 21 -51 16 0 20 7 20 30 0 33 -30 49 -41
21z"/>
<path d="M3175 2031 c-8 -26 4 -51 25 -51 21 0 33 25 25 51 -8 24 -42 24 -50
0z"/>
<path d="M2127 1813 c-10 -9 -9 -63 1 -63 15 0 32 24 32 47 0 22 -19 31 -33
16z"/>
<path d="M777 1814 c-14 -14 -6 -24 19 -24 16 0 24 5 22 13 -5 14 -31 21 -41
11z"/>
<path d="M1842 1808 c-20 -20 -15 -58 7 -58 22 0 35 28 25 54 -7 19 -16 20
-32 4z"/>
<path d="M2024 1806 c-10 -26 0 -51 21 -51 16 0 20 7 20 30 0 33 -30 49 -41
21z"/>
<path d="M2411 1801 c-14 -25 -3 -53 18 -49 10 2 16 13 16 32 0 35 -20 45 -34
17z"/>
</g>
</svg>
